<svg width="182" height="32" viewBox="0 0 182 32" fill="none" xmlns="http://www.w3.org/2000/svg"><path d="M7.82 31.61c-.62 0-1.16-.24-1.62-.72a2.85 2.85 0 0 1-.72-1.76c-.14-1.01-.24-2.63-.29-4.86l-.07-2.23c0-.63-.2-1.23-.58-1.8-.38-.6-.87-.95-1.47-1.05.17 5 .25 8.69.25 11.09 0 .67-.24 1-.72 1-.2 0-.38-.04-.58-.14-.45-.21-.64-.56-.57-1.04.19-1.42.29-2.82.29-4.21 0-1.01-.04-2.07-.11-3.17a58.4 58.4 0 0 1-.04-2.41 271.03 271.03 0 0 0-.36-10.48 52 52 0 0 0-.54-4.6c-.02-.1-.03-.25-.03-.44 0-.74.3-1.17.93-1.3a.8.8 0 0 1 .87.33c.24.26.37.61.4 1.04a53.61 53.61 0 0 1 .1 2.1L3 8.13c.04 1.4.07 2.41.07 3.06v6.4a43.95 43.95 0 0 0 1.51-5.04c.07-.38.14-.84.22-1.4L5 9.9c.17-1.53.39-2.77.65-3.7.31-1.1.9-1.91 1.76-2.42.36-.21.66-.32.9-.32.17 0 .4.06.69.18.38.17.57.53.57 1.08 0 .4-.25.67-.75.8-.96.16-1.59.8-1.87 1.9-.17.67-.33 1.4-.47 2.2a12.85 12.85 0 0 1-.43 2.05c-.41 1.25-.64 2.25-.69 3.02-.07.65-.18 1.23-.32 1.73-.15.48-.37.89-.69 1.22.6.1 1.12.52 1.55 1.26.43.75.71 1.72.83 2.92.1.84.25 2.66.47 5.47l.07.8c.07.6.36.93.86 1 .39.12.66.28.83.47.17.17.25.4.25.72 0 .38-.13.7-.4.94-.26.26-.6.4-1 .4Zm9.22.07c-.62 0-1.2-.2-1.72-.6a4.27 4.27 0 0 1-1.3-1.6 14.28 14.28 0 0 1-1.3-4.78c-.21-1.63-.32-3.2-.32-4.72 0-.28.01-.52.04-.72v-.64c0-.12-.02-.18-.04-.18v-.65l.04-2.52c.02-.77.12-2 .28-3.67.12-1.16.4-2.27.83-3.35.17-.48.39-.84.65-1.08.26-.27.56-.4.9-.4a6.03 6.03 0 0 1 4.54 1.98c.48.6.88 1.35 1.22 2.23.34.87.58 1.8.72 2.78.14 1 .22 2.07.22 3.2v.29c0 .74 0 1.41.03 2.01l.04 2.06c0 6.9-1.6 10.36-4.83 10.36Zm-.14-1.5c.43 0 .83-.18 1.19-.51.36-.36.63-.84.83-1.44a14 14 0 0 0 .82-3.96c.12-1.23.18-2.28.18-3.17 0-1.08-.08-2.5-.25-4.25a58.55 58.55 0 0 1-.21-4.14v-.65a3.86 3.86 0 0 0-.94-2.37c-.55-.67-1.24-1.01-2.05-1.01-.82 0-1.36.47-1.62 1.4-.24.75-.36 1.7-.36 2.88 0 .46.01.84.03 1.16v.97l-.07 1.65c-.05.5-.07 1.06-.07 1.66 0 1.3.04 2.58.1 3.85.1 1.8.34 3.55.73 5.26.38 1.77.95 2.66 1.7 2.66Zm12.54 1.1c-.65 0-1.37-.08-2.16-.24-.29-.08-.48-.22-.57-.44-.08-.21-.11-.48-.11-.79a228.1 228.1 0 0 1-.18-6.73v-2.27c0-1.51-.03-2.65-.07-3.42-.03-.29-.17-2.42-.44-6.4l-.18-2.92c0-.29.05-.48.15-.58.1-.12.26-.18.5-.18.84 0 1.3.35 1.4 1.05.2 1.22.33 2.35.4 3.38.1 1.87.15 3.29.15 4.25l-.04 2.91a92.32 92.32 0 0 0-.07 2.96c0 1.72.08 3.81.25 6.26l.07 1.4c0 .08.03.17.07.3.08 0 .5 0 1.3.03.8 0 1.19-.07 1.19-.22.02-.33.02-.63 0-.9v-.68a11.3 11.3 0 0 1-.04-1.05c0-2.4-.01-4.2-.03-5.4l-.11-4.06c-.1-3.03-.15-5.27-.15-6.74 0-1.03.04-2.02.11-2.98.03-.32.1-.52.22-.62.14-.12.38-.15.72-.1.48.07.78.19.9.36.14.16.2.48.18.93a53.8 53.8 0 0 0-.22 5.3l.04 3.2c.02.7.03 1.74.03 3.13-.04 2.35-.07 4.1-.07 5.22.05 1.1.1 1.96.15 2.56l.1 1.8h3.24v-1.37l.04-5.76a309.24 309.24 0 0 0-.25-9.65l-.11-3.46c0-.79.01-1.39.04-1.8.02-.24.08-.4.18-.46.1-.1.28-.15.57-.15.46.03.78.15.97.36.2.22.28.55.26 1.01l.03 4.64.04.9a22.34 22.34 0 0 1-.04 4.1c-.1 1.06-.14 1.86-.14 2.38l.03.94c.05.43.08.76.08.97.02.39.02.73 0 1.05v2.48a21.64 21.64 0 0 0 .1 2.3l.08.8c0 .1.02.21.07.36a2.78 2.78 0 0 1 .29.86c0 .38-.23.64-.69.76-.48.12-1.08.18-1.8.18l-4.43.07c-.33 0-.67.03-1 .1-.48.05-.83.08-1.05.08Zm20.37.04c-.55 0-.96-.08-1.23-.25-.26-.17-.4-.48-.4-.93 0-.72-.11-1.95-.35-3.68l-.15-.75-3.56-.54c-.14.55-.35 1.67-.61 3.35-.15 1.17-.37 1.95-.69 2.34a.86.86 0 0 1-.72.32c-.28 0-.55-.08-.79-.25a.85.85 0 0 1-.36-.69l.07-.18.04-.14a160.12 160.12 0 0 0 3.6-18.25 24.39 24.39 0 0 0 .1-1.48c.08-.89.15-1.6.22-2.12.1-.53.24-.93.44-1.19h1.22c.34 0 .62.08.86.25a.7.7 0 0 1 .36.65c0 1.82.26 4.54.76 8.14.48 3.7.72 6.28.72 7.77 0 .15.06.52.18 1.12.12.55.18.91.18 1.08 0 .17.12.89.36 2.16.22 1.15.32 1.9.32 2.23v.04c0 .52-.19.86-.57 1Zm-2.38-6.9c-.07-.37-.1-.81-.1-1.34 0-2.16-.2-4.92-.58-8.28l-.36-3.74a291.6 291.6 0 0 0-2.13 12.78c.36.24 1.42.43 3.17.57Zm12.81 6.47c-.1.07-.26.11-.5.11-.2 0-.4-.02-.61-.07a.91.91 0 0 1-.44-.22c-.12-.17-.2-.42-.25-.75-.02-.36-.03-.87-.03-1.52l-.11-5.07-.11-2.56a20 20 0 0 1 0-1.87l-.97 1.98c-.39.72-.9 1.08-1.55 1.08-.38 0-.78-.12-1.19-.36a3.57 3.57 0 0 1-1.76-3.17V16.9c0-1.32.02-2.87.07-4.65l.1-2.66v-.65c.03-.31.08-.59.15-.83.07-.24.2-.44.36-.6.2-.2.43-.3.72-.3.17 0 .33.04.47.11.43.22.65.67.65 1.37 0 .24-.03.48-.07.72-.03.24-.04.46-.04.65l-.07 1.08c-.05 1-.1 1.74-.15 2.2l-.1 1.36a47.6 47.6 0 0 0-.18 2.88c0 .55.03 1.05.1 1.48.03.33.11.67.26 1 .16.32.36.47.57.47.17 0 .36-.12.58-.36.45-.6.78-1.14.97-1.62.29-.74.54-1.56.76-2.44.21-.92.32-1.7.32-2.38.05-1.42.12-2.84.22-4.28 0-.3.02-.75.07-1.37v-.33a.85.85 0 0 1 .1-.32c.22-.26.4-.4.55-.43.38-.1.74.01 1.08.32.33.31.49.66.46 1.05l-.1 1.58c-.1 1.4-.2 2.44-.33 3.13-.14.72-.26 2.05-.36 4l-.1 1.94c-.03.2-.04.48-.04.87 0 .57.05 1.41.14 2.52.05.4.1.97.15 1.69a65.29 65.29 0 0 0 .64 5.5c.08.58-.07 1.01-.43 1.3Zm5.95.04c-.31-.1-.48-.3-.5-.61v-.54c-.05-1.01-.1-2.52-.15-4.54a440.54 440.54 0 0 1-.58-15.84c0-.55.03-.96.08-1.22.1-.75.5-1.1 1.22-1.05.68 0 1.04.39 1.08 1.15v.44l-.03 9.07v6.44c0 .34.02.73.07 1.19l.1.94c.13-.7.32-1.4.58-2.13l.54-1.37c.36-.86.63-1.57.8-2.12.57-1.85 1.32-4.12 2.23-6.8l.65-2.02c.64-2.04 1.09-3.36 1.33-3.96.21-.58.54-.94.97-1.08.22-.07.43-.1.65-.1.33 0 .68.1 1.04.32v1.72c0 1.8.04 3.66.11 5.58.02.41.04 1.02.04 1.84v1.04c0 .22-.02.5-.04.87 0 .36.01.78.04 1.26l.1 9.72c0 .36-.08.75-.25 1.19a1 1 0 0 1-.36.46c-.17.1-.35.15-.54.15-.67 0-1-.31-1-.94 0-.72.03-1.41.1-2.09.05-.9.07-1.6.07-2.08a570 570 0 0 0-.18-10.66c0-.36-.04-.95-.14-1.76l-.1-1.3c-.22.24-.34.4-.37.47l-.57 1.76a68.16 68.16 0 0 1-.9 2.77l-3.14 8.72-1.62 4.42c-.19.5-.48.76-.86.76-.07 0-.23-.02-.47-.07Zm15.82 0c-.31-.1-.48-.3-.5-.61v-.54c-.05-1.01-.1-2.52-.15-4.54a440.54 440.54 0 0 1-.58-15.84c0-.55.03-.96.08-1.22.1-.75.5-1.1 1.22-1.05.68 0 1.04.39 1.08 1.15v.44l-.03 9.07v6.44c0 .34.02.73.07 1.19l.1.94c.13-.7.32-1.4.58-2.13l.54-1.37c.36-.86.63-1.57.8-2.12.57-1.85 1.32-4.12 2.23-6.8l.65-2.02c.64-2.04 1.09-3.36 1.33-3.96.21-.58.54-.94.97-1.08.22-.07.43-.1.65-.1.33 0 .68.1 1.04.32v1.72c0 1.8.04 3.66.11 5.58.02.41.04 1.02.04 1.84v1.04c0 .22-.02.5-.04.87 0 .36.01.78.04 1.26l.1 9.72c0 .36-.08.75-.25 1.19a1 1 0 0 1-.36.46c-.17.1-.35.15-.54.15-.67 0-1-.31-1-.94 0-.72.03-1.41.1-2.09.05-.9.07-1.6.07-2.08a570 570 0 0 0-.18-10.66c0-.36-.04-.95-.14-1.76l-.1-1.3c-.22.24-.34.4-.37.47L89 14.33a68.16 68.16 0 0 1-.9 2.77l-3.14 8.72-1.62 4.42c-.19.5-.48.76-.86.76-.07 0-.23-.02-.47-.07Zm3.64-25.96a2.5 2.5 0 0 1-1.66-.68c-.5-.46-.75-.96-.75-1.51 0-.24.07-.44.21-.58a.96.96 0 0 1 .61-.25c.32-.03.58 0 .8.07.24.05.45.2.64.43.22.27.45.4.69.4.26 0 .51-.18.75-.54l.26-.43.18-.36c.26-.46.57-.69.93-.69.05 0 .15.03.29.07.2.1.35.24.47.44a.97.97 0 0 1 .07 1l-.07.22-.07.14a2.95 2.95 0 0 1-1.26 1.77c-.56.33-1.25.5-2.1.5ZM104.9 31.3c-1.1 0-1.66-.3-1.66-.9l.08-4.43.07-4.43c0-1.6-.04-4.04-.1-7.3-.08-3.25-.12-5.68-.12-7.31V6.7c0-.62.06-1.2.18-1.73.15-.65.53-.97 1.16-.97 1.67 0 3 .54 4 1.62a6.11 6.11 0 0 1 1.47 4.28c0 1.08-.3 2.21-.87 3.39a6.93 6.93 0 0 1-2.05 2.63 8.31 8.31 0 0 1 3.06 3.63c.67 1.47 1 3.09 1 4.86 0 .84-.28 1.89-.85 3.13a6.7 6.7 0 0 1-2.85 3.2c-.72.37-1.51.55-2.38.55h-.14Zm.36-15.91c.63-.15 1.15-.66 1.59-1.55.36-.67.7-1.49 1-2.45.08-.26.2-.6.36-1V9.1c0-.72-.26-1.41-.79-2.09-.53-.67-1.13-1-1.8-1-.33 0-.5.37-.5 1.11 0 1.59.02 3 .07 4.25l.07 4Zm.15 14.04a4.13 4.13 0 0 0 2.8-1.62c.7-.92 1.05-2 1.05-3.28 0-1.1-.1-2.11-.3-3.02a6.47 6.47 0 0 0-1.47-3.28c-.26-.31-.49-.52-.68-.61l-.29-.11h-1.3c.13 2.76.19 6.73.19 11.92Zm10.81 2.05c-.31 0-.6-.11-.86-.33a1.15 1.15 0 0 1-.4-.79V28.7a6.94 6.94 0 0 1-.03-.76c0-.5-.04-1.27-.11-2.3l-.08-2.3c0-1.18.04-2.94.11-5.26.1-2.1.15-3.84.15-5.26 0-.34-.04-.84-.11-1.51-.07-.7-.1-1.2-.1-1.51 0-1.7.5-2.56 1.5-2.56.8 0 1.7.16 2.74.47 1.05.31 1.58.68 1.58 1.11 0 .24-.1.47-.32.69-.2.19-.43.35-.72.47-1-.36-1.92-.6-2.74-.72a83.75 83.75 0 0 1-.1 6.73l.1.57.58-.03c.2-.03.43-.04.72-.04 1.15 0 1.73.34 1.73 1.01 0 .26-.11.5-.33.68-.21.17-.49.26-.83.26-.43 0-.76-.03-1-.08h-.9c.05.63.07 1.54.07 2.74a130.85 130.85 0 0 1-.14 6.52c0 1.34.02 2.01.07 2.01l1.19-.03c.4-.03.9-.04 1.47-.04.91 0 1.37.29 1.37.86 0 .34-.16.6-.47.76-.29.2-.65.29-1.08.29h-3.06Zm13.4.03c-.53 0-1.1-.08-1.7-.25a4.84 4.84 0 0 1-1.33-.5c-1.6-1.03-2.4-3.85-2.4-8.46V19.34c0-.96 0-1.82.03-2.56.02-.77.07-1.6.14-2.48a11.5 11.5 0 0 1 1.04-4.28c.3-.7.64-1.24 1.05-1.63.43-.38.98-.7 1.66-.97.6-.26 1.34-.4 2.23-.4.36 0 .64.09.83.26.19.16.28.38.28.64 0 .24-.08.46-.25.65-.14.2-.32.3-.54.33h-1.69c-.48 0-.9.3-1.26.9-.36.6-.61 1.38-.75 2.34a26.12 26.12 0 0 0-.47 4.32v.18l-.08 3.45c-.04 1.03-.07 2.2-.07 3.5 0 .9.04 1.65.11 2.23a7 7 0 0 0 .61 2.16c.3.64.78 1.11 1.48 1.4.36.14.75.22 1.19.22.26 0 .52-.1.79-.3.31 0 .56.08.75.22.22.12.33.32.33.58 0 .94-.66 1.4-1.98 1.4Zm7.25-1.08-.04-1.4c-.02-.4-.04-.86-.04-1.37l.04-1.22c-.07-.27-.25-2.9-.54-7.89-.29-4.99-.46-8.2-.5-9.6-1.4-.06-2.28-.2-2.67-.44-.26-.2-.4-.4-.4-.65 0-.19.13-.36.37-.5.26-.17.52-.25.79-.25.67 0 1.49.04 2.45.14.9.12 1.72.18 2.44.18H139.36c.74 0 1.12.29 1.12.86 0 .3-.12.53-.36.72a1.4 1.4 0 0 1-.83.26c-.22 0-.53-.04-.94-.11l-.72-.15-.03.18-.04.18c0 2.14.2 5.55.61 10.23.39 4.39.58 7.8.58 10.22 0 .29-.13.54-.4.76a1.2 1.2 0 0 1-.83.32l-.64-.47Zm13.53.58c-.82 0-1.23-1.98-1.23-5.94l.04-2.05.03-1.66v-.47c.03-.19.04-.42.04-.68 0-.05-.03-.1-.1-.18-.08-.07-.12-.13-.12-.18v-.04c-.11.05-.33.08-.64.08s-.7-.05-1.16-.15l-1.15-.18v4.14c0 .63.04 1.61.11 2.95.07 1.32.1 2.3.1 2.96 0 .36-.09.67-.28.93a.9.9 0 0 1-.76.4c-.45 0-.78-.45-.97-1.33-.19-.92-.28-2.1-.28-3.57l.07-2.91c.02-.82.03-1.68.03-2.6V19.41c0-.39 0-.64-.03-.76v-.18l.1-2.09c0-.9-.03-2.26-.1-4.06-.08-1.8-.11-3.16-.11-4.07 0-.29.1-.54.29-.76.19-.21.43-.32.72-.32.77 0 1.15.72 1.15 2.16l-.07 4.46a127.1 127.1 0 0 0-.08 4.5c.37.12 1.01.18 1.95.18h1.33c.05-.14.07-.29.07-.43 0-1.15-.07-2.86-.21-5.11a67.7 67.7 0 0 1-.25-5.15c0-.26.1-.48.28-.65.22-.19.47-.29.76-.29.17 0 .4.06.72.18l.32.15c0 3.4.12 7.95.36 13.64l.33 9.11c0 .34-.13.6-.4.8-.24.18-.53.28-.86.28Zm6.73-.07c-.31-.1-.48-.3-.5-.61v-.54c-.05-1.01-.1-2.52-.15-4.54a440.54 440.54 0 0 1-.58-15.84c0-.55.03-.96.08-1.22.1-.75.5-1.1 1.22-1.05.67 0 1.03.39 1.08 1.15v.44l-.03 9.07v6.44c0 .34.02.73.07 1.19l.1.94c.13-.7.32-1.4.58-2.13l.54-1.37c.36-.86.63-1.57.8-2.12.57-1.85 1.31-4.12 2.23-6.8.19-.56.4-1.23.64-2.02.65-2.04 1.1-3.36 1.34-3.96.21-.58.54-.94.97-1.08.22-.07.43-.1.65-.1.33 0 .68.1 1.04.32v1.72c0 1.8.04 3.66.1 5.58.03.41.05 1.02.05 1.84v1.04c0 .22-.02.5-.04.87l.03 1.26.11 9.72c0 .36-.08.75-.25 1.19a1 1 0 0 1-.36.46c-.17.1-.35.15-.54.15-.67 0-1-.31-1-.94 0-.72.03-1.41.1-2.09.05-.9.07-1.6.07-2.08a570 570 0 0 0-.18-10.66c0-.36-.05-.95-.14-1.76l-.1-1.3c-.22.24-.34.4-.37.47l-.57 1.76a68.16 68.16 0 0 1-.9 2.77l-3.14 8.72-1.62 4.42c-.19.5-.48.76-.86.76-.07 0-.23-.02-.47-.07Zm16.15.14c-.1-.02-.26-.05-.47-.07a1.2 1.2 0 0 1-.54-.18c-.36-.24-.5-.65-.44-1.22l.04-.8c.1-1.3.15-2.26.15-2.91 0-3.77-.04-7.56-.11-11.38 0-1.97-.06-4.05-.18-6.26-.03-.39.06-.71.25-.97.22-.27.48-.4.8-.4.28 0 .57.13.86.4.3.26.45.57.43.93-.17.72-.26 2.16-.26 4.32v2.88c0 .53.03 1.37.08 2.52.07-.1.3-.54.68-1.33l.25-.43c.12-.22.2-.43.25-.65.8-2.4 1.44-4.25 1.95-5.54.22-.7.5-1.29.86-1.77.36-.5.86-.85 1.48-1.04.22-.07.5-.05.86.07.39.12.64.26.76.43a.9.9 0 0 1 .22.61c0 .24-.09.46-.26.65a.92.92 0 0 1-.57.36c-.6.1-1.07.31-1.4.65-.34.34-.6.7-.76 1.08-.15.36-.33.91-.54 1.66l-1.44 3.52c-.08.17-.18.46-.33.87-.12.4-.24.72-.36.93a.92.92 0 0 1-.21.22c-.1.07-.18.14-.25.22.16-.12.38-.09.64.1.3.2.58.46.87.8.19.38.32.8.4 1.26l.17.79c.05.38.1.67.15.86a12.69 12.69 0 0 1 .86 4.36c.07.86.31 1.62.72 2.27a12.55 12.55 0 0 0 .94.14c.38.02.63.26.75.72.03.05.04.13.04.25 0 .27-.12.52-.36.76-.36.36-.82.54-1.37.54-.4 0-.8-.11-1.19-.33-.36-.21-.62-.5-.79-.86a3.45 3.45 0 0 1-.36-.97 65.56 65.56 0 0 1-.43-3.13c-.1-1.47-.2-2.57-.32-3.32a6.5 6.5 0 0 0-.69-2.2c-.1-.16-.2-.28-.29-.35a.54.54 0 0 0-.4-.15c-.14 0-.32.04-.53.11a114.32 114.32 0 0 0 .07 9.76.94.94 0 0 1-.15.65c-.1.14-.27.33-.53.57Z" fill="#000"/></svg>