<svg xmlns="http://www.w3.org/2000/svg" width="147" height="19" fill="none"><path fill="#000" d="M4.152 18.34a1.2 1.2 0 0 1-.9-.4 1.583 1.583 0 0 1-.4-.98c-.08-.56-.133-1.46-.16-2.7l-.04-1.24c0-.347-.107-.68-.32-1-.213-.333-.487-.527-.82-.58.093 2.773.14 4.827.14 6.16 0 .373-.133.56-.4.56a.71.71 0 0 1-.32-.08c-.253-.12-.36-.313-.32-.58a17.4 17.4 0 0 0 .16-2.34c0-.56-.02-1.147-.06-1.76a32.45 32.45 0 0 1-.02-1.34c-.013-.187-.02-.48-.02-.88C.619 8.993.559 7.347.492 6.24a28.89 28.89 0 0 0-.3-2.56 1.066 1.066 0 0 1-.02-.24c0-.413.173-.653.52-.72.2-.04.36.02.48.18.133.147.207.34.22.58.013.173.027.38.04.62.013.227.02.407.02.54l.02.66c.027.773.04 1.34.04 1.7v3.56c.12-.28.267-.713.44-1.3.173-.587.307-1.087.4-1.5.04-.213.08-.473.12-.78l.12-.7c.093-.853.213-1.54.36-2.06.173-.613.5-1.06.98-1.34.2-.12.367-.18.5-.18.093 0 .22.033.38.1.213.093.32.293.32.6 0 .227-.14.373-.42.44-.533.093-.88.447-1.04 1.06-.093.373-.18.78-.26 1.22-.093.587-.173.967-.24 1.14-.227.693-.353 1.253-.38 1.68-.04.36-.1.68-.18.96a1.7 1.7 0 0 1-.38.68c.333.053.62.287.86.7s.393.953.46 1.62c.053.467.14 1.48.26 3.04l.04.44c.04.333.2.52.48.56.213.067.367.153.46.26.093.093.14.227.14.4a.67.67 0 0 1-.22.52.758.758 0 0 1-.56.22Zm5.125.04c-.347 0-.667-.113-.96-.34a2.375 2.375 0 0 1-.72-.88 7.932 7.932 0 0 1-.72-2.66c-.12-.907-.18-1.78-.18-2.62 0-.16.006-.293.02-.4v-.36c0-.067-.007-.1-.02-.1v-.36l.02-1.4c.013-.427.066-1.107.16-2.04.066-.64.22-1.26.46-1.86.093-.267.213-.467.36-.6a.69.69 0 0 1 .5-.22c.533 0 1.013.1 1.44.3.426.187.787.453 1.08.8.266.333.493.747.68 1.24.187.48.32.993.4 1.54.08.56.12 1.153.12 1.78v.16c0 .413.007.787.02 1.12l.02 1.14c0 3.84-.894 5.76-2.68 5.76Zm-.08-.84c.24 0 .46-.093.66-.28.2-.2.353-.467.46-.8.253-.68.406-1.413.46-2.2.067-.68.1-1.267.1-1.76 0-.6-.047-1.387-.14-2.36-.08-1.027-.12-1.793-.12-2.3v-.36a2.145 2.145 0 0 0-.52-1.32c-.307-.373-.687-.56-1.14-.56-.454 0-.754.26-.9.78-.134.413-.2.947-.2 1.6 0 .253.006.467.02.64v.54l-.04.92c-.027.28-.04.587-.04.92 0 .72.02 1.433.06 2.14.053 1 .186 1.973.4 2.92.213.987.526 1.48.94 1.48Zm6.967.62c-.36 0-.76-.047-1.2-.14-.16-.04-.267-.12-.32-.24-.04-.12-.06-.267-.06-.44-.04-.827-.073-2.073-.1-3.74v-1.26c0-.84-.014-1.473-.04-1.9-.014-.16-.094-1.347-.24-3.56l-.1-1.62c0-.16.027-.267.08-.32.053-.067.147-.1.28-.1.466 0 .726.193.78.58.107.68.18 1.307.22 1.88.053 1.04.08 1.827.08 2.36l-.02 1.62a51.49 51.49 0 0 0-.04 1.64c0 .96.046 2.12.14 3.48l.04.78c0 .04.013.093.04.16.04 0 .28.007.72.02.44 0 .66-.04.66-.12a3.103 3.103 0 0 0 0-.5v-.38a6.292 6.292 0 0 1-.02-.58c0-1.333-.007-2.333-.02-3l-.06-2.26c-.054-1.68-.08-2.927-.08-3.74 0-.573.02-1.127.06-1.66.013-.173.053-.287.12-.34.08-.067.213-.087.4-.06.266.04.433.107.5.2.08.093.113.267.1.52-.08.787-.12 1.767-.12 2.94l.02 1.78c.013.387.02.967.02 1.74-.027 1.307-.04 2.273-.04 2.9.027.613.053 1.087.08 1.42l.06 1h1.8v-.76l.02-3.2c0-.707-.007-1.24-.02-1.6-.014-.573-.034-1.24-.06-2l-.06-1.76-.06-1.92c0-.44.006-.773.02-1 .013-.133.047-.22.1-.26.053-.053.16-.08.32-.08.253.013.433.08.54.2.107.12.153.307.14.56l.02 2.58.02.5c.026.453.04.787.04 1a12.356 12.356 0 0 1-.06 1.28c-.053.587-.08 1.027-.08 1.32l.02.52c.027.24.04.42.04.54.013.213.013.407 0 .58v1.38c0 .28.006.527.02.74.013.213.026.393.04.54l.04.44c0 .053.013.12.04.2.04.08.066.14.08.18.053.133.08.233.08.3 0 .213-.127.353-.38.42-.267.067-.6.1-1 .1l-2.46.04c-.187 0-.373.02-.56.06-.267.027-.46.04-.58.04Zm11.314.02c-.306 0-.533-.047-.68-.14-.146-.093-.22-.267-.22-.52 0-.4-.066-1.08-.2-2.04l-.08-.42-1.98-.3c-.08.307-.193.927-.34 1.86-.08.653-.206 1.087-.38 1.3a.477.477 0 0 1-.4.18.75.75 0 0 1-.44-.14.474.474 0 0 1-.2-.38l.04-.1.02-.08a88.974 88.974 0 0 0 2-10.14c0-.053.007-.14.02-.26.014-.133.027-.32.04-.56.04-.493.08-.887.12-1.18.054-.293.134-.513.24-.66h.68c.187 0 .347.047.48.14.134.08.2.2.2.36 0 1.013.14 2.52.42 4.52.267 2.053.4 3.493.4 4.32 0 .08.034.287.1.62.067.307.1.507.1.6 0 .093.067.493.2 1.2.12.64.18 1.053.18 1.24v.02c0 .293-.106.48-.32.56Zm-1.32-3.84c-.04-.2-.06-.447-.06-.74 0-1.2-.106-2.733-.32-4.6l-.2-2.08c-.573 3.133-.966 5.5-1.18 7.1.2.133.787.24 1.76.32Zm7.117 3.6c-.053.04-.147.06-.28.06-.107 0-.22-.013-.34-.04a.508.508 0 0 1-.24-.12c-.067-.093-.113-.233-.14-.42-.013-.2-.02-.48-.02-.84l-.06-2.82-.06-1.42c-.013-.64-.013-.987 0-1.04l-.54 1.1c-.213.4-.5.6-.86.6-.213 0-.433-.067-.66-.2-.627-.373-.953-.96-.98-1.76v-.88c0-.733.013-1.593.04-2.58l.06-1.48v-.36c.013-.173.04-.327.08-.46a.795.795 0 0 1 .2-.34.543.543 0 0 1 .4-.16c.093 0 .18.02.26.06.24.12.36.373.36.76 0 .133-.013.267-.04.4-.013.133-.02.253-.02.36l-.04.6c-.027.56-.053.967-.08 1.22l-.06.76c-.067.827-.1 1.36-.1 1.6 0 .307.02.58.06.82.013.187.06.373.14.56.093.173.2.26.32.26.093 0 .2-.067.32-.2.253-.333.433-.633.54-.9.16-.413.3-.867.42-1.36.12-.507.18-.947.18-1.32.027-.787.067-1.58.12-2.38 0-.16.013-.413.04-.76v-.18a.473.473 0 0 1 .06-.18c.12-.147.22-.227.3-.24.213-.053.413.007.6.18s.273.367.26.58l-.06.88c-.053.773-.113 1.353-.18 1.74-.08.4-.147 1.14-.2 2.22l-.06 1.08c-.013.107-.02.267-.02.48 0 .32.027.787.08 1.4.027.227.053.54.08.94.027.44.093 1.1.2 1.98.027.24.08.6.16 1.08.04.32-.04.56-.24.72Zm3.306.02c-.174-.053-.267-.167-.28-.34v-.3c-.027-.56-.054-1.4-.08-2.52a82.922 82.922 0 0 1-.1-2.24c-.04-.813-.087-2.033-.14-3.66-.014-.28-.027-.667-.04-1.16a45.21 45.21 0 0 1-.02-1.12A7.321 7.321 0 0 1 35.9 6c0-.307.013-.533.04-.68.053-.413.28-.607.68-.58.373 0 .573.213.6.64v.24l-.02 5.04v3.58c0 .187.013.407.04.66.026.24.046.413.06.52.066-.387.173-.78.32-1.18.16-.413.26-.667.3-.76.2-.48.346-.873.44-1.18.32-1.027.733-2.287 1.24-3.78.106-.307.226-.68.36-1.12.36-1.133.606-1.867.74-2.2.12-.32.3-.52.54-.6.12-.04.24-.06.36-.06.186 0 .38.06.58.18v.96c0 1 .02 2.033.06 3.1.013.227.02.567.02 1.02v.58c0 .12-.007.28-.02.48 0 .2.006.433.02.7l.06 5.4c0 .2-.047.42-.14.66a.55.55 0 0 1-.2.26.595.595 0 0 1-.3.08c-.374 0-.56-.173-.56-.52 0-.4.02-.787.06-1.16.026-.507.04-.893.04-1.16-.027-2.64-.06-4.613-.1-5.92 0-.2-.027-.527-.08-.98l-.06-.72c-.12.133-.187.22-.2.26l-.32.98c-.214.693-.38 1.207-.5 1.54l-1.74 4.84-.9 2.46c-.107.28-.267.42-.48.42a1.75 1.75 0 0 1-.26-.04Zm8.789 0c-.174-.053-.267-.167-.28-.34v-.3a115.3 115.3 0 0 1-.08-2.52 82.504 82.504 0 0 1-.1-2.24c-.04-.813-.087-2.033-.14-3.66a59.12 59.12 0 0 1-.04-1.16c-.014-.493-.02-.867-.02-1.12a7.279 7.279 0 0 1-.02-.62c0-.307.013-.533.04-.68.053-.413.28-.607.68-.58.373 0 .573.213.6.64v.24l-.02 5.04v3.58c0 .187.013.407.04.66.026.24.046.413.06.52a6.76 6.76 0 0 1 .32-1.18c.16-.413.26-.667.3-.76.2-.48.346-.873.44-1.18.32-1.027.733-2.287 1.24-3.78.106-.307.226-.68.36-1.12.36-1.133.606-1.867.74-2.2.12-.32.3-.52.54-.6.12-.04.24-.06.36-.06.186 0 .38.06.58.18v.96c0 1 .02 2.033.06 3.1.013.227.02.567.02 1.02v.58c0 .12-.007.28-.02.48 0 .2.006.433.02.7l.06 5.4c0 .2-.047.42-.14.66a.55.55 0 0 1-.2.26.596.596 0 0 1-.3.08c-.374 0-.56-.173-.56-.52 0-.4.02-.787.06-1.16.026-.507.04-.893.04-1.16-.027-2.64-.06-4.613-.1-5.92 0-.2-.027-.527-.08-.98l-.06-.72c-.12.133-.187.22-.2.26l-.32.98c-.214.693-.38 1.207-.5 1.54l-1.74 4.84-.9 2.46c-.107.28-.267.42-.48.42a1.75 1.75 0 0 1-.26-.04Zm2.02-14.42c-.32 0-.627-.127-.92-.38-.28-.253-.42-.533-.42-.84 0-.133.04-.24.12-.32a.531.531 0 0 1 .34-.14c.173-.013.32 0 .44.04a.62.62 0 0 1 .36.24c.12.147.246.22.38.22.146 0 .286-.1.42-.3.053-.093.1-.173.14-.24l.1-.2c.146-.253.32-.38.52-.38.026 0 .08.013.16.04a.642.642 0 0 1 .26.24.537.537 0 0 1 .04.56l-.04.12-.04.08c-.147.467-.38.793-.7.98-.307.187-.694.28-1.16.28ZM58.09 18.16c-.613 0-.92-.167-.92-.5l.04-2.46.04-2.46c0-.893-.02-2.247-.06-4.06-.04-1.8-.06-3.153-.06-4.06V4.5c0-.347.033-.667.1-.96.08-.36.294-.54.64-.54.933 0 1.673.3 2.22.9.547.6.82 1.393.82 2.38 0 .6-.16 1.227-.48 1.88-.32.653-.7 1.14-1.14 1.46a4.619 4.619 0 0 1 1.7 2.02c.373.813.56 1.713.56 2.7 0 .467-.16 1.047-.48 1.74-.386.827-.913 1.42-1.58 1.78-.4.2-.84.3-1.32.3h-.08Zm.2-8.84c.347-.08.64-.367.88-.86.2-.373.387-.827.56-1.36.04-.147.107-.333.2-.56v-.7c0-.4-.146-.787-.44-1.16-.293-.373-.627-.56-1-.56-.187 0-.28.207-.28.62 0 .88.014 1.667.04 2.36l.04 2.22Zm.08 7.8c.654-.093 1.173-.393 1.56-.9s.58-1.113.58-1.82c0-.613-.053-1.173-.16-1.68-.093-.52-.22-.913-.38-1.18a4.435 4.435 0 0 0-.44-.64c-.146-.173-.273-.287-.38-.34l-.16-.06h-.72c.067 1.533.1 3.74.1 6.62Zm6.01 1.14a.742.742 0 0 1-.48-.18.64.64 0 0 1-.22-.44v-.92c-.014-.12-.02-.26-.02-.42 0-.28-.02-.707-.06-1.28l-.04-1.28c0-.653.02-1.627.06-2.92.053-1.16.08-2.133.08-2.92 0-.187-.02-.467-.06-.84a9.223 9.223 0 0 1-.06-.84c0-.947.28-1.42.84-1.42.44 0 .946.087 1.52.26.586.173.88.38.88.62 0 .133-.06.26-.18.38-.107.107-.24.193-.4.26a8.073 8.073 0 0 0-1.52-.4c.013.2.02.487.02.86 0 .533-.007 1.013-.02 1.44-.04.64-.06 1.12-.06 1.44l.06.32.32-.02c.106-.013.24-.02.4-.02.64 0 .96.187.96.56 0 .147-.06.273-.18.38a.727.727 0 0 1-.46.14c-.24 0-.427-.013-.56-.04h-.5c.026.347.04.853.04 1.52s-.007 1.267-.02 1.8c-.04.813-.06 1.42-.06 1.82 0 .747.013 1.12.04 1.12l.66-.02c.226-.013.5-.02.82-.02.506 0 .76.16.76.48a.45.45 0 0 1-.26.42c-.16.107-.36.16-.6.16h-1.7Zm7.443.02c-.293 0-.607-.047-.94-.14-.32-.08-.567-.173-.74-.28-.894-.573-1.34-2.14-1.34-4.7V11.52c0-.533.007-1.007.02-1.42.013-.427.04-.887.08-1.38.04-.52.1-.94.18-1.26.08-.333.213-.707.4-1.12.16-.387.353-.687.58-.9a3.05 3.05 0 0 1 .92-.54c.333-.147.747-.22 1.24-.22.2 0 .353.047.46.14.106.093.16.213.16.36a.532.532 0 0 1-.14.36.424.424 0 0 1-.3.18h-.94c-.267 0-.5.167-.7.5-.2.333-.34.767-.42 1.3-.173.987-.26 1.787-.26 2.4v.1l-.04 1.92c-.027.573-.04 1.22-.04 1.94 0 .507.02.92.06 1.24.067.48.18.88.34 1.2.16.36.433.62.82.78.2.08.42.12.66.12a.745.745 0 0 0 .44-.16c.173 0 .313.04.42.12a.34.34 0 0 1 .18.32c0 .52-.367.78-1.1.78Zm4.026-.6-.02-.78c-.014-.227-.02-.48-.02-.76l.02-.68c-.04-.147-.14-1.607-.3-4.38-.16-2.773-.254-4.553-.28-5.34-.774-.027-1.267-.107-1.48-.24-.147-.107-.22-.227-.22-.36 0-.107.066-.2.2-.28a.814.814 0 0 1 .44-.14c.373 0 .826.027 1.36.08.506.067.96.1 1.36.1h.32c.413 0 .62.16.62.48 0 .16-.067.293-.2.4a.782.782 0 0 1-.46.14c-.12 0-.294-.02-.52-.06l-.4-.08-.02.1-.02.1c0 1.187.113 3.08.34 5.68.213 2.44.32 4.333.32 5.68 0 .16-.074.3-.22.42a.668.668 0 0 1-.46.18l-.36-.26Zm7.517.32c-.453 0-.68-1.1-.68-3.3l.02-1.14.02-.92v-.26c.013-.107.02-.233.02-.38 0-.027-.02-.06-.06-.1-.04-.04-.06-.073-.06-.1v-.02c-.067.027-.187.04-.36.04s-.387-.027-.64-.08c-.08-.013-.293-.047-.64-.1v2.3c0 .347.02.893.06 1.64.04.733.06 1.28.06 1.64a.86.86 0 0 1-.16.52.496.496 0 0 1-.42.22c-.253 0-.433-.247-.54-.74-.107-.507-.16-1.167-.16-1.98l.04-1.62c.013-.453.02-.933.02-1.44V11.56c0-.213-.007-.353-.02-.42v-.1l.06-1.16c0-.507-.02-1.26-.06-2.26-.04-1-.06-1.753-.06-2.26 0-.16.053-.3.16-.42.107-.12.24-.18.4-.18.427 0 .64.4.64 1.2l-.04 2.48c-.027.747-.04 1.58-.04 2.5.2.067.56.1 1.08.1h.74c.027-.08.04-.16.04-.24 0-.64-.04-1.587-.12-2.84a37.577 37.577 0 0 1-.14-2.86c0-.147.053-.267.16-.36.12-.107.26-.16.42-.16.093 0 .227.033.4.1l.18.08c0 1.893.067 4.42.2 7.58l.18 5.06a.515.515 0 0 1-.22.44.745.745 0 0 1-.48.16Zm3.741-.04c-.173-.053-.267-.167-.28-.34v-.3c-.027-.56-.053-1.4-.08-2.52a83.344 83.344 0 0 1-.1-2.24c-.04-.813-.087-2.033-.14-3.66a60.75 60.75 0 0 1-.04-1.16 45.21 45.21 0 0 1-.02-1.12 7.321 7.321 0 0 1-.02-.62c0-.307.013-.533.04-.68.053-.413.28-.607.68-.58.373 0 .573.213.6.64v.24l-.02 5.04v3.58c0 .187.013.407.04.66l.06.52c.067-.387.173-.78.32-1.18.16-.413.26-.667.3-.76.2-.48.347-.873.44-1.18.32-1.027.733-2.287 1.24-3.78.107-.307.227-.68.36-1.12.36-1.133.607-1.867.74-2.2.12-.32.3-.52.54-.6.12-.04.24-.06.36-.06.187 0 .38.06.58.18v.96c0 1 .02 2.033.06 3.1.013.227.02.567.02 1.02v.58c0 .12-.007.28-.02.48 0 .2.007.433.02.7l.06 5.4c0 .2-.047.42-.14.66a.55.55 0 0 1-.2.26.595.595 0 0 1-.3.08c-.373 0-.56-.173-.56-.52 0-.4.02-.787.06-1.16.027-.507.04-.893.04-1.16a316.08 316.08 0 0 0-.1-5.92c0-.2-.027-.527-.08-.98l-.06-.72c-.12.133-.187.22-.2.26l-.32.98c-.213.693-.38 1.207-.5 1.54l-1.74 4.84-.9 2.46c-.107.28-.267.42-.48.42-.04 0-.127-.013-.26-.04Zm8.97.08a2.196 2.196 0 0 0-.26-.04.666.666 0 0 1-.3-.1c-.2-.133-.28-.36-.24-.68l.02-.44c.052-.72.08-1.26.08-1.62 0-2.093-.02-4.2-.06-6.32 0-1.093-.034-2.253-.1-3.48a.804.804 0 0 1 .14-.54.55.55 0 0 1 .44-.22c.16 0 .32.073.48.22.172.147.252.32.24.52-.094.4-.14 1.2-.14 2.4v1.6c0 .293.012.76.04 1.4.04-.053.166-.3.38-.74.026-.053.072-.133.14-.24.066-.12.112-.24.14-.36.44-1.333.8-2.36 1.08-3.08a3.2 3.2 0 0 1 .48-.98c.2-.28.472-.473.82-.58.12-.04.28-.027.48.04.212.067.352.147.419.24.08.093.12.207.12.34a.534.534 0 0 1-.14.36.513.513 0 0 1-.32.2c-.333.053-.593.173-.78.36a1.963 1.963 0 0 0-.42.6c-.08.2-.18.507-.3.92l-.8 1.96c-.04.093-.1.253-.18.48a2.66 2.66 0 0 1-.2.52.51.51 0 0 1-.12.12c-.053.04-.1.08-.14.12.093-.067.213-.047.36.06.16.107.32.253.48.44.107.213.18.447.22.7.053.253.087.4.1.44.027.213.053.373.08.48.16.427.273.82.34 1.18.067.347.113.76.14 1.24.04.48.173.9.4 1.26.067.013.14.027.22.04.093.013.193.027.3.04.213.013.353.147.42.4a.35.35 0 0 1 .02.14c0 .147-.067.287-.2.42-.2.2-.453.3-.76.3a1.33 1.33 0 0 1-.66-.18 1.09 1.09 0 0 1-.44-.48 1.914 1.914 0 0 1-.2-.54 36.497 36.497 0 0 1-.24-1.74c-.053-.813-.113-1.427-.18-1.84a3.61 3.61 0 0 0-.38-1.22.653.653 0 0 0-.16-.2.297.297 0 0 0-.22-.08c-.08 0-.18.02-.3.06-.027.96-.04 1.893-.04 2.8 0 .573.027 1.447.08 2.62a.52.52 0 0 1-.08.36c-.053.08-.153.187-.3.32Zm14.645.16c-1.147 0-2.04-.207-2.68-.62a3.362 3.362 0 0 1-1.36-1.7c-.267-.72-.447-1.647-.54-2.78-.04-.68-.067-1.147-.08-1.4a.453.453 0 0 1-.02-.14c-.08-1.387-.12-2.247-.12-2.58 0-.973.067-1.953.2-2.94.173-1.253.447-2.313.82-3.18.24-.547.507-.993.8-1.34.293-.36.647-.653 1.06-.88.427-.227.907-.34 1.44-.34.6 0 1.16.133 1.68.4.533.253 1 .6 1.4 1.04.36.44.687.953.98 1.54.307.587.553 1.2.74 1.84.36 1.173.6 2.453.72 3.84.04.573.06 1.12.06 1.64 0 1.107-.087 2.113-.26 3.02-.2 1.053-.54 1.947-1.02 2.68-.28.4-.593.74-.94 1.02a4.19 4.19 0 0 1-1.24.64c-.493.16-1.04.24-1.64.24Zm-.26-1c1.213 0 2.14-.34 2.78-1.02.307-.347.56-.733.76-1.16.2-.44.367-.96.5-1.56a.505.505 0 0 1-.02-.18c0-.107.04-.28.12-.52.067-.267.1-.44.1-.52V9.26c0-.36-.073-.867-.22-1.52l-.16-.68c-.173-.88-.347-1.587-.52-2.12a7.561 7.561 0 0 0-.78-1.64 5.215 5.215 0 0 0-1.4-1.5c-.067-.04-.16-.1-.28-.18a2.265 2.265 0 0 0-.44-.26 1.082 1.082 0 0 0-.44-.08c-.467 0-.893.133-1.28.4-.373.253-.68.613-.92 1.08a9.214 9.214 0 0 0-.98 3.16c-.133 1.013-.2 1.98-.2 2.9 0 .56.04 1.333.12 2.32.013.24.027.447.04.62.013.16.02.3.02.42.067 1.053.153 1.88.26 2.48.107.6.32 1.12.64 1.56.32.44.8.74 1.44.9.227.053.513.08.86.08Zm.64-1.4c-.2 0-.4-.027-.6-.08a7.775 7.775 0 0 1-.7-.3 7.718 7.718 0 0 0-.58-.26 19.7 19.7 0 0 1-.82-1.74 5.921 5.921 0 0 1-.32-1.36c-.053-.48-.08-1.147-.08-2v-.12c0-.587.013-1.127.04-1.62.027-.587.1-1.233.22-1.94a6.09 6.09 0 0 1 .58-1.74c.133-.28.287-.507.46-.68.187-.173.407-.32.66-.44.253-.107.527-.16.82-.16.32 0 .667.113 1.04.34.373.227.68.513.92.86.253.333.38.66.38.98a.56.56 0 0 1-.14.38.463.463 0 0 1-.34.14.716.716 0 0 1-.46-.16 1.425 1.425 0 0 1-.34-.4c-.067-.107-.12-.2-.16-.28a1.552 1.552 0 0 0-.08-.2c-.213-.373-.46-.56-.74-.56-.227 0-.433.093-.62.28a1.793 1.793 0 0 0-.44.66c-.093.253-.18.573-.26.96-.08.373-.133.707-.16 1-.027.2-.053.52-.08.96l-.06.68.04.1h-.02c-.053.213-.08.547-.08 1v.5c0 .68.053 1.34.16 1.98.08.453.18.827.3 1.12.12.28.293.527.52.74a1.273 1.273 0 0 0 1.42.18c.187-.107.333-.233.44-.38.093-.147.207-.273.34-.38a.724.724 0 0 1 .42-.16.44.44 0 0 1 .38.2c.107.133.16.287.16.46 0 .253-.133.5-.4.74-.253.227-.56.4-.92.52-.333.12-.633.18-.9.18Zm11.529 2.34a.859.859 0 0 1-.52-.16.568.568 0 0 1-.2-.44v-.08c.266-.32.533-.853.8-1.6.12-.36.22-.62.3-.78.786-1.747 1.36-3.32 1.72-4.72.36-1.4.54-2.88.54-4.44 0-1.667-.32-2.52-.96-2.56-.214.107-.36.42-.44.94a1.153 1.153 0 0 1-.2.54.493.493 0 0 1-.4.2c-.32 0-.48-.207-.48-.62 0-.627.186-1.153.56-1.58.2-.213.44-.32.72-.32V2.5c.453 0 .833.1 1.14.3.226.133.44.387.64.76.106.213.206.567.3 1.06.026.24.04.467.04.68.013.2.026.347.04.44v.54c0 .907-.114 1.893-.34 2.96a19.122 19.122 0 0 1-.78 2.82 85.46 85.46 0 0 1-1.04 2.7 47.567 47.567 0 0 0-.9 2.4c.76-.133 1.546-.2 2.36-.2.28.2.42.387.42.56 0 .16-.087.307-.26.44-.254 0-.614.02-1.08.06l-.44.02c-.56.067-1.074.1-1.54.1Zm8.455-.2c-1.613 0-2.42-3.747-2.42-11.24v-.64c0-1 .113-1.78.34-2.34.107-.32.273-.56.5-.72.24-.173.527-.26.86-.26 1.907 0 2.86 3.393 2.86 10.18 0 3.347-.713 5.02-2.14 5.02Zm.18-.92c.213 0 .387-.2.52-.6.227-.587.387-1.567.48-2.94.027-.293.04-.633.04-1.02 0-.893-.04-2.08-.12-3.56-.093-1.4-.3-2.667-.62-3.8-.147-.573-.347-1.027-.6-1.36-.24-.333-.513-.52-.82-.56-.2.16-.34.327-.42.5-.067.173-.1.407-.1.7 0 .733.013 1.387.04 1.96l.04 2c0 .173.033.493.1.96.067.493.1.82.1.98 0 .32.02 1.053.06 2.2.053 1.093.18 2.1.38 3.02.093.467.22.84.38 1.12.16.267.34.4.54.4Zm4.646 1.12a.86.86 0 0 1-.52-.16.57.57 0 0 1-.2-.44v-.08c.267-.32.533-.853.8-1.6.12-.36.22-.62.3-.78.787-1.747 1.36-3.32 1.72-4.72.36-1.4.54-2.88.54-4.44 0-1.667-.32-2.52-.96-2.56-.213.107-.36.42-.44.94a1.142 1.142 0 0 1-.2.54.493.493 0 0 1-.4.2c-.32 0-.48-.207-.48-.62 0-.627.187-1.153.56-1.58.2-.213.44-.32.72-.32V2.5c.453 0 .833.1 1.14.3.227.133.44.387.64.76.107.213.207.567.3 1.06.027.24.04.467.04.68.013.2.027.347.04.44v.54c0 .907-.113 1.893-.34 2.96a18.88 18.88 0 0 1-.78 2.82 83.085 83.085 0 0 1-1.04 2.7 49.637 49.637 0 0 0-.9 2.4c.76-.133 1.547-.2 2.36-.2.28.2.42.387.42.56 0 .16-.087.307-.26.44-.253 0-.613.02-1.08.06l-.44.02c-.56.067-1.073.1-1.54.1Zm8.395.06c-.493 0-.893-.133-1.2-.4-.186-.147-.28-.327-.28-.54 0-.133.02-.22.06-.26.04-.053.134-.08.28-.08.107 0 .2.04.28.12.107.107.207.193.3.26.107.053.24.08.4.08.814 0 1.22-.753 1.22-2.26 0-.693-.006-1.207-.02-1.54a13.37 13.37 0 0 0-.12-1.24c-.16-1.067-.52-1.947-1.08-2.64a.581.581 0 0 1-.2.02.895.895 0 0 1-.44-.1.323.323 0 0 1-.18-.3c0-.227.22-.56.66-1 .174-.187.32-.42.44-.7.12-.293.18-.58.18-.86 0-.547-.06-1.153-.18-1.82-.066-.4-.18-.727-.34-.98-.146-.253-.32-.38-.52-.38a.59.59 0 0 0-.4.16 1.02 1.02 0 0 0-.24.4.89.89 0 0 1-.24.42.638.638 0 0 1-.44.16.637.637 0 0 1-.4-.14.723.723 0 0 1-.2-.4c.187-.467.447-.84.78-1.12.347-.28.74-.42 1.18-.42.307 0 .587.1.84.3.254.187.454.44.6.76a6 6 0 0 1 .34 1.08c.094.4.154.78.18 1.14.027.253.04.62.04 1.1 0 .187-.033.373-.1.56a1.73 1.73 0 0 1-.18.44 2.103 2.103 0 0 1-.32.48l-.3.44c.307.187.58.507.82.96.24.453.42.98.54 1.58.214 1.12.32 2.12.32 3 0 .547-.033 1.08-.1 1.6a3.456 3.456 0 0 1-.58 1.46c-.28.44-.746.66-1.4.66Z"/></svg>