<svg xmlns="http://www.w3.org/2000/svg" width="93" height="77" fill="none"><path fill="#000" d="M7.82 31.612c-.624 0-1.164-.24-1.62-.72-.432-.48-.672-1.068-.72-1.764-.144-1.008-.24-2.628-.288-4.86l-.072-2.232c0-.624-.192-1.224-.576-1.8-.384-.6-.876-.948-1.476-1.044.168 4.992.252 8.688.252 11.088 0 .672-.24 1.008-.72 1.008-.192 0-.384-.048-.576-.144-.456-.216-.648-.564-.576-1.044.192-1.416.288-2.82.288-4.212 0-1.008-.036-2.064-.108-3.168a58.41 58.41 0 0 1-.036-2.412 24.74 24.74 0 0 1-.036-1.584c-.096-3.936-.204-6.9-.324-8.892-.072-1.2-.252-2.736-.54-4.608a1.919 1.919 0 0 1-.036-.432c0-.744.312-1.176.936-1.296.36-.072.648.036.864.324.24.264.372.612.396 1.044.024.312.048.684.072 1.116.024.408.036.732.036.972l.036 1.188c.048 1.392.072 2.412.072 3.06v6.408c.216-.504.48-1.284.792-2.34a43.95 43.95 0 0 0 .72-2.7c.072-.384.144-.852.216-1.404.096-.552.168-.972.216-1.26.168-1.536.384-2.772.648-3.708.312-1.104.9-1.908 1.764-2.412.36-.216.66-.324.9-.324.168 0 .396.06.684.18.384.168.576.528.576 1.08 0 .408-.252.672-.756.792-.96.168-1.584.804-1.872 1.908a34.62 34.62 0 0 0-.468 2.196c-.168 1.056-.312 1.74-.432 2.052-.408 1.248-.636 2.256-.684 3.024-.072.648-.18 1.224-.324 1.728a3.06 3.06 0 0 1-.684 1.224c.6.096 1.116.516 1.548 1.26.432.744.708 1.716.828 2.916.096.84.252 2.664.468 5.472l.072.792c.072.6.36.936.864 1.008.384.12.66.276.828.468.168.168.252.408.252.72 0 .384-.132.696-.396.936-.264.264-.6.396-1.008.396Zm9.225.072c-.624 0-1.2-.204-1.728-.612-.528-.384-.96-.912-1.296-1.584-.696-1.464-1.128-3.06-1.296-4.788a35.96 35.96 0 0 1-.324-4.716c0-.288.012-.528.036-.72v-.648c0-.12-.012-.18-.036-.18v-.648l.036-2.52c.024-.768.12-1.992.288-3.672.12-1.152.396-2.268.828-3.348.168-.48.384-.84.648-1.08.264-.264.564-.396.9-.396.96 0 1.824.18 2.592.54a5.282 5.282 0 0 1 1.944 1.44c.48.6.888 1.344 1.224 2.232.336.864.576 1.788.72 2.772.144 1.008.216 2.076.216 3.204v.288c0 .744.012 1.416.036 2.016l.036 2.052c0 6.912-1.608 10.368-4.824 10.368Zm-.144-1.512c.432 0 .828-.168 1.188-.504.36-.36.636-.84.828-1.44.456-1.224.732-2.544.828-3.96.12-1.224.18-2.28.18-3.168 0-1.08-.084-2.496-.252-4.248-.144-1.848-.216-3.228-.216-4.14v-.648c-.048-.912-.36-1.704-.936-2.376-.552-.672-1.236-1.008-2.052-1.008-.816 0-1.356.468-1.62 1.404-.24.744-.36 1.704-.36 2.88 0 .456.012.84.036 1.152v.972l-.072 1.656a17.548 17.548 0 0 0-.072 1.656c0 1.296.036 2.58.108 3.852.096 1.8.336 3.552.72 5.256.384 1.776.948 2.664 1.692 2.664Zm12.54 1.116c-.648 0-1.368-.084-2.16-.252-.288-.072-.48-.216-.576-.432a2.526 2.526 0 0 1-.108-.792c-.072-1.488-.132-3.732-.18-6.732v-2.268c0-1.512-.024-2.652-.072-3.42-.024-.288-.168-2.424-.432-6.408l-.18-2.916c0-.288.048-.48.144-.576.096-.12.264-.18.504-.18.84 0 1.308.348 1.404 1.044.192 1.224.324 2.352.396 3.384.096 1.872.144 3.288.144 4.248l-.036 2.916a92.318 92.318 0 0 0-.072 2.952c0 1.728.084 3.816.252 6.264l.072 1.404a.83.83 0 0 0 .072.288c.072 0 .504.012 1.296.036.792 0 1.188-.072 1.188-.216a5.614 5.614 0 0 0 0-.9v-.684c-.024-.24-.036-.588-.036-1.044 0-2.4-.012-4.2-.036-5.4l-.108-4.068c-.096-3.024-.144-5.268-.144-6.732 0-1.032.036-2.028.108-2.988.024-.312.096-.516.216-.612.144-.12.384-.156.72-.108.48.072.78.192.9.36.144.168.204.48.18.936-.144 1.416-.216 3.18-.216 5.292l.036 3.204c.024.696.036 1.74.036 3.132a282.943 282.943 0 0 0-.072 5.22c.048 1.104.096 1.956.144 2.556l.108 1.8h3.24v-1.368l.036-5.76c0-1.272-.012-2.232-.036-2.88a309.24 309.24 0 0 0-.108-3.6l-.108-3.168-.108-3.456c0-.792.012-1.392.036-1.8.024-.24.084-.396.18-.468.096-.096.288-.144.576-.144.456.024.78.144.972.36.192.216.276.552.252 1.008l.036 4.644.036.9c.048.816.072 1.416.072 1.8a22.338 22.338 0 0 1-.108 2.304c-.096 1.056-.144 1.848-.144 2.376l.036.936c.048.432.072.756.072.972.024.384.024.732 0 1.044v2.484c0 .504.012.948.036 1.332.024.384.048.708.072.972l.072.792c0 .096.024.216.072.36.072.144.12.252.144.324.096.24.144.42.144.54 0 .384-.228.636-.684.756-.48.12-1.08.18-1.8.18l-4.428.072c-.336 0-.672.036-1.008.108-.48.048-.828.072-1.044.072Zm20.366.036c-.552 0-.96-.084-1.224-.252-.264-.168-.395-.48-.395-.936 0-.72-.12-1.944-.36-3.672l-.145-.756-3.563-.54c-.145.552-.348 1.668-.612 3.348-.145 1.176-.373 1.956-.684 2.34-.168.216-.408.324-.72.324-.288 0-.553-.084-.792-.252-.24-.192-.36-.42-.36-.684l.072-.18.035-.144c1.585-6.168 2.785-12.252 3.6-18.252 0-.096.013-.252.037-.468.023-.24.047-.576.072-1.008.072-.888.143-1.596.215-2.124.097-.528.24-.924.433-1.188h1.224c.335 0 .623.084.864.252.24.144.36.36.36.648 0 1.824.252 4.536.756 8.136.48 3.696.72 6.288.72 7.776 0 .144.06.516.18 1.116.12.552.18.912.18 1.08 0 .168.12.888.36 2.16.215 1.152.323 1.896.323 2.232v.036c0 .528-.192.864-.576 1.008Zm-2.376-6.912a6.934 6.934 0 0 1-.107-1.332c0-2.16-.192-4.92-.576-8.28l-.36-3.744c-1.032 5.64-1.74 9.9-2.124 12.78.36.24 1.415.432 3.167.576Zm12.81 6.48c-.096.072-.264.108-.504.108-.192 0-.396-.024-.612-.072-.192-.048-.336-.12-.432-.216-.12-.168-.204-.42-.252-.756-.024-.36-.036-.864-.036-1.512l-.108-5.076-.108-2.556c-.024-1.152-.024-1.776 0-1.872l-.972 1.98c-.384.72-.9 1.08-1.548 1.08-.384 0-.78-.12-1.188-.36-1.128-.672-1.716-1.728-1.764-3.168v-1.584c0-1.32.024-2.868.072-4.644l.108-2.664v-.648c.024-.312.072-.588.144-.828s.192-.444.36-.612a.977.977 0 0 1 .72-.288c.168 0 .324.036.468.108.432.216.648.672.648 1.368 0 .24-.024.48-.072.72-.024.24-.036.456-.036.648l-.072 1.08a43.128 43.128 0 0 1-.144 2.196l-.108 1.368c-.12 1.488-.18 2.448-.18 2.88 0 .552.036 1.044.108 1.476.024.336.108.672.252 1.008.168.312.36.468.576.468.168 0 .36-.12.576-.36.456-.6.78-1.14.972-1.62.288-.744.54-1.56.756-2.448.216-.912.324-1.704.324-2.376.048-1.416.12-2.844.216-4.284 0-.288.024-.744.072-1.368v-.324a.847.847 0 0 1 .108-.324c.216-.264.396-.408.54-.432.384-.096.744.012 1.08.324.336.312.492.66.468 1.044l-.108 1.584c-.096 1.392-.204 2.436-.324 3.132-.144.72-.264 2.052-.36 3.996l-.108 1.944c-.024.192-.036.48-.036.864 0 .576.048 1.416.144 2.52.048.408.096.972.144 1.692.048.792.168 1.98.36 3.564.048.432.144 1.08.288 1.944.072.576-.072 1.008-.432 1.296Zm5.95.036c-.311-.096-.48-.3-.503-.612v-.54c-.048-1.008-.096-2.52-.144-4.536a149.27 149.27 0 0 1-.18-4.032c-.072-1.464-.156-3.66-.252-6.588-.024-.504-.048-1.2-.072-2.088a81.077 81.077 0 0 1-.036-2.016 13.153 13.153 0 0 1-.036-1.116c0-.552.024-.96.072-1.224.096-.744.504-1.092 1.224-1.044.672 0 1.032.384 1.08 1.152v.432l-.036 9.072v6.444c0 .336.024.732.072 1.188.048.432.084.744.108.936.12-.696.312-1.404.576-2.124.288-.744.468-1.2.54-1.368.36-.864.624-1.572.792-2.124a294.95 294.95 0 0 1 2.232-6.804 53.48 53.48 0 0 0 .648-2.016c.648-2.04 1.092-3.36 1.332-3.96.216-.576.54-.936.972-1.08.216-.072.432-.108.648-.108.336 0 .684.108 1.044.324v1.728c0 1.8.036 3.66.108 5.58.024.408.036 1.02.036 1.836v1.044c0 .216-.012.504-.036.864 0 .36.012.78.036 1.26l.108 9.72c0 .36-.084.756-.252 1.188a.991.991 0 0 1-.36.468 1.07 1.07 0 0 1-.54.144c-.672 0-1.008-.312-1.008-.936 0-.72.036-1.416.108-2.088a42.92 42.92 0 0 0 .072-2.088c-.048-4.752-.108-8.304-.18-10.656 0-.36-.048-.948-.144-1.764l-.108-1.296c-.216.24-.336.396-.36.468l-.576 1.764a68.157 68.157 0 0 1-.9 2.772l-3.132 8.712-1.62 4.428c-.192.504-.48.756-.864.756a3.16 3.16 0 0 1-.468-.072Zm15.821 0c-.312-.096-.48-.3-.504-.612v-.54c-.048-1.008-.096-2.52-.144-4.536a149.27 149.27 0 0 1-.18-4.032c-.072-1.464-.156-3.66-.252-6.588-.024-.504-.048-1.2-.072-2.088a81.077 81.077 0 0 1-.036-2.016 13.153 13.153 0 0 1-.036-1.116c0-.552.024-.96.072-1.224.096-.744.504-1.092 1.224-1.044.672 0 1.032.384 1.08 1.152v.432l-.036 9.072v6.444c0 .336.024.732.072 1.188.048.432.084.744.108.936.12-.696.312-1.404.576-2.124.288-.744.468-1.2.54-1.368.36-.864.624-1.572.792-2.124a294.95 294.95 0 0 1 2.232-6.804 53.48 53.48 0 0 0 .648-2.016c.648-2.04 1.092-3.36 1.332-3.96.216-.576.54-.936.972-1.08.216-.072.432-.108.648-.108.336 0 .684.108 1.044.324v1.728c0 1.8.036 3.66.108 5.58.024.408.036 1.02.036 1.836v1.044c0 .216-.012.504-.036.864 0 .36.012.78.036 1.26l.108 9.72c0 .36-.084.756-.252 1.188a.991.991 0 0 1-.36.468 1.07 1.07 0 0 1-.54.144c-.672 0-1.008-.312-1.008-.936 0-.72.036-1.416.108-2.088a42.92 42.92 0 0 0 .072-2.088c-.048-4.752-.108-8.304-.18-10.656 0-.36-.048-.948-.144-1.764l-.108-1.296c-.216.24-.336.396-.36.468l-.576 1.764a68.157 68.157 0 0 1-.9 2.772l-3.132 8.712-1.62 4.428c-.192.504-.48.756-.864.756a3.16 3.16 0 0 1-.468-.072Zm3.636-25.956c-.576 0-1.128-.228-1.656-.684-.504-.456-.756-.96-.756-1.512 0-.24.072-.432.216-.576.144-.144.348-.228.612-.252.312-.024.576 0 .792.072.24.048.456.192.648.432.216.264.444.396.684.396.264 0 .516-.18.756-.54.096-.168.18-.312.252-.432l.18-.36c.264-.456.576-.684.936-.684.048 0 .144.024.288.072.192.096.348.24.468.432a.966.966 0 0 1 .072 1.008l-.072.216-.072.144c-.264.84-.684 1.428-1.26 1.764-.552.336-1.248.504-2.088.504ZM2.852 76.288c-1.104 0-1.656-.3-1.656-.9l.072-4.428.072-4.428c0-1.608-.036-4.044-.108-7.308a359.13 359.13 0 0 1-.108-7.308V51.7c0-.624.06-1.2.18-1.728.144-.648.528-.972 1.152-.972 1.68 0 3.012.54 3.996 1.62s1.476 2.508 1.476 4.284c0 1.08-.288 2.208-.864 3.384-.576 1.176-1.26 2.052-2.052 2.628 1.392.936 2.412 2.148 3.06 3.636.672 1.464 1.008 3.084 1.008 4.86 0 .84-.288 1.884-.864 3.132-.696 1.488-1.644 2.556-2.844 3.204-.72.36-1.512.54-2.376.54h-.144Zm.36-15.912c.624-.144 1.152-.66 1.584-1.548.36-.672.696-1.488 1.008-2.448.072-.264.192-.6.36-1.008v-1.26c0-.72-.264-1.416-.792-2.088-.528-.672-1.128-1.008-1.8-1.008-.336 0-.504.372-.504 1.116 0 1.584.024 3 .072 4.248l.072 3.996Zm.144 14.04c1.176-.168 2.112-.708 2.808-1.62.696-.912 1.044-2.004 1.044-3.276 0-1.104-.096-2.112-.288-3.024-.168-.936-.396-1.644-.684-2.124a7.969 7.969 0 0 0-.792-1.152c-.264-.312-.492-.516-.684-.612l-.288-.108H3.176c.12 2.76.18 6.732.18 11.916Zm10.816 2.052c-.312 0-.6-.108-.864-.324a1.151 1.151 0 0 1-.396-.792V73.696a6.94 6.94 0 0 1-.036-.756c0-.504-.036-1.272-.108-2.304l-.072-2.304c0-1.176.036-2.928.108-5.256.096-2.088.144-3.84.144-5.256 0-.336-.036-.84-.108-1.512-.072-.696-.108-1.2-.108-1.512 0-1.704.504-2.556 1.512-2.556.792 0 1.704.156 2.736.468 1.056.312 1.584.684 1.584 1.116 0 .24-.108.468-.324.684a2.2 2.2 0 0 1-.72.468c-1.008-.36-1.92-.6-2.736-.72.024.36.036.876.036 1.548 0 .96-.012 1.824-.036 2.592a45.479 45.479 0 0 0-.108 2.592l.108.576.576-.036a5.97 5.97 0 0 1 .72-.036c1.152 0 1.728.336 1.728 1.008a.887.887 0 0 1-.324.684c-.216.168-.492.252-.828.252-.432 0-.768-.024-1.008-.072h-.9c.048.624.072 1.536.072 2.736 0 1.2-.012 2.28-.036 3.24a73.29 73.29 0 0 0-.108 3.276c0 1.344.024 2.016.072 2.016l1.188-.036c.408-.024.9-.036 1.476-.036.912 0 1.368.288 1.368.864 0 .336-.156.588-.468.756-.288.192-.648.288-1.08.288h-3.06Zm13.399.036a6.289 6.289 0 0 1-1.692-.252c-.576-.144-1.02-.312-1.332-.504-1.608-1.032-2.412-3.852-2.412-8.46v-2.952c0-.96.012-1.812.036-2.556.024-.768.072-1.596.144-2.484.072-.936.18-1.692.324-2.268.144-.6.384-1.272.72-2.016.288-.696.636-1.236 1.044-1.62.432-.384.984-.708 1.656-.972.6-.264 1.344-.396 2.232-.396.36 0 .636.084.828.252a.822.822 0 0 1 .288.648c0 .24-.084.456-.252.648a.763.763 0 0 1-.54.324h-1.692c-.48 0-.9.3-1.26.9-.36.6-.612 1.38-.756 2.34-.312 1.776-.468 3.216-.468 4.32v.18l-.072 3.456a75.872 75.872 0 0 0-.072 3.492c0 .912.036 1.656.108 2.232.12.864.324 1.584.612 2.16.288.648.78 1.116 1.476 1.404.36.144.756.216 1.188.216.264 0 .528-.096.792-.288.312 0 .564.072.756.216.216.12.324.312.324.576 0 .936-.66 1.404-1.98 1.404Zm7.247-1.08-.036-1.404a23.482 23.482 0 0 1-.036-1.368l.035-1.224c-.072-.264-.252-2.892-.54-7.884-.288-4.992-.456-8.196-.504-9.612-1.392-.048-2.28-.192-2.664-.432-.264-.192-.396-.408-.396-.648 0-.192.12-.36.36-.504.265-.168.529-.252.793-.252.672 0 1.488.048 2.448.144.912.12 1.727.18 2.447.18h.576c.744 0 1.116.288 1.116.864 0 .288-.12.528-.36.72-.24.168-.516.252-.828.252-.215 0-.527-.036-.935-.108l-.72-.144-.036.18-.036.18c0 2.136.203 5.544.611 10.224.385 4.392.577 7.8.577 10.224 0 .288-.133.54-.396.756-.24.216-.516.324-.828.324l-.648-.468Zm13.53.576c-.816 0-1.224-1.98-1.224-5.94l.036-2.052.036-1.656V65.884c.024-.192.036-.42.036-.684 0-.048-.036-.108-.108-.18-.072-.072-.108-.132-.108-.18v-.036c-.12.048-.336.072-.648.072s-.696-.048-1.152-.144c-.144-.024-.528-.084-1.152-.18v4.14c0 .624.036 1.608.108 2.952.072 1.32.108 2.304.108 2.952 0 .36-.096.672-.288.936a.893.893 0 0 1-.756.396c-.456 0-.78-.444-.972-1.332-.192-.912-.288-2.1-.288-3.564l.072-2.916c.024-.816.036-1.68.036-2.592v-1.116c0-.384-.012-.636-.036-.756v-.18l.108-2.088c0-.912-.036-2.268-.108-4.068-.072-1.8-.108-3.156-.108-4.068 0-.288.096-.54.288-.756a.923.923 0 0 1 .72-.324c.768 0 1.152.72 1.152 2.16l-.072 4.464a127.094 127.094 0 0 0-.072 4.5c.36.12 1.008.18 1.944.18h1.332c.048-.144.072-.288.072-.432 0-1.152-.072-2.856-.216-5.112-.168-2.112-.252-3.828-.252-5.148 0-.264.096-.48.288-.648.216-.192.468-.288.756-.288.168 0 .408.06.72.18l.324.144c0 3.408.12 7.956.36 13.644l.324 9.108c0 .336-.132.6-.396.792a1.34 1.34 0 0 1-.864.288Zm6.734-.072c-.312-.096-.48-.3-.504-.612v-.54c-.048-1.008-.096-2.52-.144-4.536a149.27 149.27 0 0 1-.18-4.032c-.072-1.464-.156-3.66-.252-6.588-.024-.504-.048-1.2-.072-2.088a81.077 81.077 0 0 1-.036-2.016 13.153 13.153 0 0 1-.036-1.116c0-.552.024-.96.072-1.224.096-.744.504-1.092 1.224-1.044.672 0 1.032.384 1.08 1.152v.432l-.036 9.072v6.444c0 .336.024.732.072 1.188.048.432.084.744.108.936.12-.696.312-1.404.576-2.124.288-.744.468-1.2.54-1.368.36-.864.624-1.572.792-2.124a294.95 294.95 0 0 1 2.232-6.804 53.48 53.48 0 0 0 .648-2.016c.648-2.04 1.092-3.36 1.332-3.96.216-.576.54-.936.972-1.08.216-.072.432-.108.648-.108.336 0 .684.108 1.044.324v1.728c0 1.8.036 3.66.108 5.58.024.408.036 1.02.036 1.836v1.044c0 .216-.012.504-.036.864 0 .36.012.78.036 1.26l.108 9.72c0 .36-.084.756-.252 1.188a.991.991 0 0 1-.36.468 1.07 1.07 0 0 1-.54.144c-.672 0-1.008-.312-1.008-.936 0-.72.036-1.416.108-2.088a42.92 42.92 0 0 0 .072-2.088c-.048-4.752-.108-8.304-.18-10.656 0-.36-.048-.948-.144-1.764l-.108-1.296c-.216.24-.336.396-.36.468l-.576 1.764a68.157 68.157 0 0 1-.9 2.772l-3.132 8.712-1.62 4.428c-.192.504-.48.756-.864.756a3.16 3.16 0 0 1-.468-.072Zm16.145.144a3.955 3.955 0 0 0-.468-.072 1.199 1.199 0 0 1-.54-.18c-.36-.24-.504-.648-.432-1.224l.036-.792c.096-1.296.144-2.268.144-2.916 0-3.768-.036-7.56-.108-11.376 0-1.968-.06-4.056-.18-6.264-.024-.384.06-.708.252-.972.216-.264.48-.396.792-.396.288 0 .576.132.864.396.312.264.456.576.432.936-.168.72-.252 2.16-.252 4.32v2.88c0 .528.024 1.368.072 2.52.072-.096.3-.54.684-1.332.048-.096.132-.24.252-.432.12-.216.204-.432.252-.648.792-2.4 1.44-4.248 1.944-5.544.216-.696.504-1.284.864-1.764.36-.504.852-.852 1.476-1.044.216-.072.504-.048.864.072.384.12.636.264.756.432a.908.908 0 0 1 .216.612c0 .24-.084.456-.252.648a.921.921 0 0 1-.576.36c-.6.096-1.068.312-1.404.648a3.535 3.535 0 0 0-.756 1.08c-.144.36-.324.912-.54 1.656l-1.44 3.528c-.072.168-.18.456-.324.864-.12.408-.24.72-.36.936a.916.916 0 0 1-.216.216 2.35 2.35 0 0 0-.252.216c.168-.12.384-.084.648.108.288.192.576.456.864.792.192.384.324.804.396 1.26.096.456.156.72.18.792.048.384.096.672.144.864.288.768.492 1.476.612 2.124.12.624.204 1.368.252 2.232.072.864.312 1.62.72 2.268.12.024.252.048.396.072.168.024.348.048.54.072.384.024.636.264.756.72a.618.618 0 0 1 .036.252c0 .264-.12.516-.36.756-.36.36-.816.54-1.368.54-.408 0-.804-.108-1.188-.324a1.962 1.962 0 0 1-.792-.864c-.144-.24-.264-.564-.36-.972a65.562 65.562 0 0 1-.432-3.132c-.096-1.464-.204-2.568-.324-3.312a6.5 6.5 0 0 0-.684-2.196 1.175 1.175 0 0 0-.288-.36.535.535 0 0 0-.396-.144c-.144 0-.324.036-.54.108a181.615 181.615 0 0 0-.072 5.04c0 1.032.048 2.604.144 4.716.024.264-.024.48-.144.648-.096.144-.276.336-.54.576Z"/></svg>