<?xml version="1.0" standalone="no"?>
<!DOCTYPE svg PUBLIC "-//W3C//DTD SVG 20010904//EN"
 "http://www.w3.org/TR/2001/REC-SVG-20010904/DTD/svg10.dtd">
<svg version="1.0" xmlns="http://www.w3.org/2000/svg"
 width="260.000000pt" height="260.000000pt" viewBox="0 0 260.000000 260.000000"
 preserveAspectRatio="xMidYMid meet">
<metadata>
Created by potrace 1.14, written by Peter Selinger 2001-2017
</metadata>
<g transform="translate(0.000000,260.000000) scale(0.100000,-0.100000)"
fill="#000000" stroke="none">
<path d="M0 2350 c0 -241 1 -250 19 -250 11 0 28 13 38 30 20 35 37 34 41 -2
2 -20 -2 -27 -22 -32 -15 -3 -26 -10 -26 -15 0 -4 -11 -6 -25 -3 -25 4 -25 3
-25 -61 0 -42 4 -67 13 -71 9 -5 9 -7 -1 -12 -9 -4 -12 -66 -12 -259 0 -232 1
-253 18 -260 16 -6 16 -7 0 -19 -16 -12 -18 -34 -18 -200 0 -117 4 -186 10
-186 6 0 10 -9 10 -20 0 -11 -4 -20 -10 -20 -6 0 -10 -84 -10 -231 0 -224 1
-230 20 -224 22 7 80 -31 80 -52 0 -7 9 -13 20 -13 20 0 26 -22 14 -54 -11
-28 -31 -17 -63 31 -16 27 -39 54 -51 61 -20 12 -20 11 -20 -238 l0 -250 105
0 105 0 0 191 c0 105 5 234 10 287 27 251 43 374 60 460 20 98 34 121 77 122
41 0 38 31 -5 45 -16 5 -22 13 -20 28 2 17 12 23 42 27 l40 5 -33 33 c-28 27
-30 32 -13 32 11 0 33 -7 48 -15 36 -19 94 -20 94 -2 0 8 -26 26 -59 41 -83
38 -97 56 -83 105 7 21 12 54 12 73 0 49 32 147 84 253 141 291 173 354 198
396 15 25 28 52 28 59 0 49 183 267 209 251 20 -13 30 -112 31 -301 0 -135 3
-159 19 -187 23 -36 35 -38 291 -48 80 -3 184 -10 232 -17 119 -15 124 -10
173 129 21 59 42 113 47 120 8 10 55 99 129 244 29 57 54 78 72 60 15 -15 56
-136 83 -246 34 -137 54 -188 141 -355 91 -174 221 -409 237 -430 7 -8 21 -32
31 -53 11 -22 37 -53 58 -70 21 -18 65 -56 97 -86 l60 -54 0 46 c0 27 -5 47
-12 50 -10 4 -10 6 0 6 9 1 12 86 12 390 l0 390 -22 7 -22 7 22 17 c29 24 28
35 -8 73 -19 20 -30 43 -30 61 l0 29 23 -21 c13 -12 26 -22 30 -22 4 0 7 106
7 235 l0 235 -1300 0 -1300 0 0 -250z m1907 173 c3 -7 -4 -9 -16 -6 -12 3 -18
9 -15 15 7 11 26 6 31 -9z m-87 -33 c0 -5 -2 -10 -4 -10 -3 0 -8 5 -11 10 -3
6 -1 10 4 10 6 0 11 -4 11 -10z m-1610 -106 c0 -20 -4 -25 -22 -22 -41 6 -29
35 20 47 1 1 2 -11 2 -25z m1525 -4 c18 -20 17 -20 -13 -20 -30 0 -42 16 -25
33 10 11 19 8 38 -13z m720 10 c5 -8 11 -7 21 1 17 14 29 6 21 -16 -9 -22 -54
-19 -67 5 -8 16 -8 20 4 20 8 0 18 -5 21 -10z m-1695 -20 c0 -5 -5 -10 -11
-10 -5 0 -7 5 -4 10 3 6 8 10 11 10 2 0 4 -4 4 -10z m247 -297 c-1 -43 -3 -10
-3 72 0 83 2 118 3 78 2 -40 2 -107 0 -150z m-677 142 c0 -12 -57 -57 -87 -70
-25 -11 -33 -20 -34 -42 -2 -22 -3 -19 -8 12 -4 23 -3 45 4 52 26 29 125 67
125 48z m2026 -12 c20 -26 17 -35 -6 -21 -11 7 -20 18 -20 25 0 18 10 16 26
-4z m-299 -35 c-3 -7 -5 -2 -5 12 0 14 2 19 5 13 2 -7 2 -19 0 -25z m473 17
c0 -9 -6 -12 -16 -8 -13 5 -13 7 -2 14 17 11 18 11 18 -6z m-1180 -69 c0 -17
-35 -22 -44 -7 -3 5 -3 23 0 40 l6 31 19 -24 c11 -13 19 -31 19 -40z m1093 37
c-7 -2 -19 -2 -25 0 -7 3 -2 5 12 5 14 0 19 -2 13 -5z m-1157 -91 c-4 -3 -12
0 -19 7 -9 9 -9 14 3 21 11 7 16 5 18 -6 2 -9 1 -18 -2 -22z m99 1 c-7 -17 -8
-17 -15 2 -9 24 -2 41 12 27 6 -6 7 -19 3 -29z m710 -2 c3 -5 1 -12 -5 -16 -5
-3 -10 1 -10 9 0 18 6 21 15 7z m-922 -37 c6 -33 -20 -45 -40 -18 -12 16 -11
20 4 31 24 18 30 16 36 -13z m342 5 c10 -30 -10 -47 -25 -20 -11 21 -6 41 10
41 5 0 12 -9 15 -21z m-255 7 c0 -18 -33 -75 -40 -71 -14 9 -12 62 3 68 15 7
37 8 37 3z m180 -56 c0 -12 -4 -18 -10 -15 -5 3 -10 15 -10 26 0 10 -4 19 -10
19 -5 0 -10 8 -10 17 0 14 3 14 20 -5 11 -12 20 -31 20 -42z m-1360 22 c0 -9
-41 -35 -46 -29 -3 3 -2 16 2 31 5 21 9 24 25 15 10 -5 19 -13 19 -17z m1260
24 c0 -2 3 -11 6 -20 4 -12 0 -16 -15 -16 -14 0 -21 6 -21 20 0 11 7 20 15 20
8 0 15 -2 15 -4z m230 -41 c0 -8 -2 -15 -4 -15 -2 0 -6 7 -10 15 -3 8 -1 15 4
15 6 0 10 -7 10 -15z m-1303 -47 c-3 -7 -5 -2 -5 12 0 14 2 19 5 13 2 -7 2
-19 0 -25z m253 -8 c0 -5 -4 -10 -9 -10 -6 0 -13 5 -16 10 -3 6 1 10 9 10 9 0
16 -4 16 -10z m1830 -40 c9 -16 8 -20 -5 -20 -8 0 -15 9 -15 20 0 11 2 20 5
20 2 0 9 -9 15 -20z m-2024 -17 c-10 -10 -19 5 -10 18 6 11 8 11 12 0 2 -7 1
-15 -2 -18z m94 -124 c0 -18 -2 -19 -15 -9 -8 7 -15 16 -15 21 0 5 7 9 15 9 9
0 15 -9 15 -21z m-93 -261 c-3 -7 -5 -2 -5 12 0 14 2 19 5 13 2 -7 2 -19 0
-25z m-85 -101 c-8 -30 -9 -31 -16 -9 -4 12 -12 22 -17 22 -14 0 -11 14 8 37
18 22 18 22 26 2 4 -12 3 -35 -1 -52z m55 1 c-3 -8 -6 -5 -6 6 -1 11 2 17 5
13 3 -3 4 -12 1 -19z m-77 -63 c0 -8 -4 -15 -10 -15 -5 0 -10 7 -10 15 0 8 5
15 10 15 6 0 10 -7 10 -15z m-93 -101 c-3 -3 -12 -4 -19 -1 -8 3 -5 6 6 6 11
1 17 -2 13 -5z m80 -36 c-3 -8 -6 -5 -6 6 -1 11 2 17 5 13 3 -3 4 -12 1 -19z
m-70 -225 c-3 -10 -5 -4 -5 12 0 17 2 24 5 18 2 -7 2 -21 0 -30z m69 -28 c-4
-15 -14 -25 -24 -25 -14 0 -14 2 -3 9 8 5 15 20 17 33 3 32 5 35 11 20 3 -7 2
-24 -1 -37z m-96 -425 c0 -5 -4 -10 -10 -10 -5 0 -10 5 -10 10 0 6 5 10 10 10
6 0 10 -4 10 -10z"/>
<path d="M742 2157 c-6 -7 -27 -51 -46 -97 -56 -131 -46 -198 24 -181 24 7 25
12 31 96 4 50 14 111 22 137 8 26 12 49 9 52 -9 10 -29 6 -40 -7z"/>
<path d="M1836 2036 c-57 -178 -48 -213 53 -200 31 3 59 8 64 11 11 7 8 62 -8
128 -8 33 -15 79 -15 102 0 56 -8 73 -35 73 -19 0 -26 -13 -59 -114z m62 -110
c-2 -11 -10 -22 -19 -24 -20 -4 -30 28 -17 52 13 23 40 1 36 -28z"/>
<path d="M670 1666 c0 -11 40 -26 71 -26 21 0 6 19 -22 29 -41 14 -49 14 -49
-3z"/>
<path d="M1403 1638 c-23 -7 -33 -17 -33 -31 0 -14 4 -17 18 -12 9 5 36 13 60
19 23 6 41 15 39 21 -5 14 -46 15 -84 3z"/>
<path d="M580 1558 c-33 -18 -37 -45 -9 -74 22 -24 22 -25 6 -54 -17 -28 -17
-29 5 -36 32 -10 108 -6 124 6 19 17 37 77 30 104 -12 47 -106 80 -156 54z"/>
<path d="M1460 1531 c-56 -13 -87 -28 -94 -46 -9 -26 -8 -33 14 -55 17 -17 33
-20 110 -20 62 0 100 5 124 16 50 24 57 66 16 92 -26 16 -124 23 -170 13z"/>
<path d="M764 1338 c-75 -80 -123 -145 -160 -217 -31 -62 -36 -79 -32 -122 3
-27 13 -58 23 -69 26 -29 117 -60 157 -54 33 6 35 4 51 -36 15 -39 19 -42 44
-36 37 9 38 9 118 1 54 -6 79 -4 109 9 53 22 93 21 108 -4 7 -11 21 -20 32
-20 16 0 18 7 14 65 -5 81 -15 93 -60 72 -21 -9 -68 -16 -128 -17 -141 -4
-143 -4 -130 20 6 11 15 20 20 20 5 0 29 13 52 29 24 16 82 55 130 86 59 38
90 64 94 80 7 27 -1 45 -19 45 -19 0 -81 -34 -108 -58 -79 -74 -301 -192 -360
-192 -52 0 -86 53 -68 108 28 86 71 150 157 238 59 61 68 94 24 94 -20 0 -39
-12 -68 -42z"/>
<path d="M1442 1353 c2 -12 14 -19 36 -21 33 -3 40 6 20 26 -19 19 -60 15 -56
-5z"/>
<path d="M1548 1223 c12 -2 32 -2 45 0 12 2 2 4 -23 4 -25 0 -35 -2 -22 -4z"/>
<path d="M1655 1220 c11 -5 34 -9 50 -9 17 0 39 4 50 9 14 6 -2 9 -50 9 -48 0
-64 -3 -50 -9z"/>
<path d="M1420 1140 c-24 -16 9 -31 135 -62 119 -30 151 -33 160 -19 7 13 -20
27 -70 36 -22 4 -66 18 -97 31 -61 25 -103 30 -128 14z"/>
<path d="M1366 1074 c-11 -28 -7 -32 58 -68 56 -32 116 -47 116 -30 0 20 -27
46 -65 63 -25 11 -48 27 -51 35 -8 21 -50 21 -58 0z"/>
<path d="M802 673 c-12 -10 -27 -40 -34 -66 -11 -44 -11 -51 11 -92 29 -54 81
-82 167 -90 68 -7 95 4 78 32 -8 13 -24 18 -55 18 -76 0 -145 53 -156 119 -4
27 -1 42 12 56 26 29 6 47 -23 23z"/>
</g>
</svg>
