<svg width="594" height="36" viewBox="0 0 594 36" fill="none" xmlns="http://www.w3.org/2000/svg">
<path d="M544.614 3.88629L540.203 7.81574L536.232 4.534L532.262 1.29545H296.503H60.7442L56.4309 4.92263L52.0686 8.54981L47.5593 4.62036L43.001 0.647736L38.8838 4.27492L34.7666 7.9021L32.3649 6.04533C26.3851 1.42499 19.18 0.215927 11.8278 2.63405C9.6712 3.36812 8.10274 4.3181 5.70104 6.43395C1.43679 10.2339 0.162418 12.9111 0.113403 18.395C0.113403 22.0222 0.211432 22.4972 1.97595 25.563C4.08357 29.3197 6.77936 31.6947 11.0926 33.5514C13.5433 34.631 14.3766 34.7605 18.9839 34.7605C23.5423 34.7605 24.4735 34.631 26.9243 33.5946C28.4927 32.9469 30.8454 31.522 32.2178 30.3993L34.7175 28.3266L38.9818 32.0833L43.246 35.84L47.7064 31.9106L52.2157 27.9811L56.3819 31.4788L60.4991 34.9764H296.699H532.9L536.821 31.522C538.977 29.622 540.938 28.0675 541.232 28.0675C541.477 28.0675 543.438 29.5788 545.496 31.3924L549.319 34.7605L553.486 31.0901L557.652 27.463L560.201 29.7947C561.818 31.2197 564.024 32.6015 565.984 33.4219C568.876 34.631 569.611 34.7605 574.072 34.7605C578.532 34.7605 579.267 34.631 582.159 33.4219C589.952 30.1402 594.266 23.0585 592.893 15.5883C591.913 9.97477 587.943 5.4408 581.767 2.89314C578.826 1.68407 577.993 1.51135 574.072 1.51135C570.15 1.51135 569.317 1.68407 566.376 2.89314C564.563 3.62721 562.112 5.05217 560.838 6.08851L558.583 7.94528L554.074 3.97265C551.574 1.77044 549.417 2.67029e-05 549.319 2.67029e-05C549.172 2.67029e-05 547.065 1.77044 544.614 3.88629ZM25.6009 6.30441C26.9733 6.86576 28.8848 8.03164 29.9632 8.89526L31.8257 10.4498L27.5124 14.2928L23.1502 18.1359L27.5614 22.0654L31.9727 25.9948L29.522 27.8948C21.5817 34.1128 9.52416 31.9538 5.16188 23.5335C3.78948 20.8995 3.69145 15.8042 4.91681 13.3861C8.59289 6.08851 17.8076 2.93632 25.6009 6.30441ZM534.125 7.55665L537.311 10.4066L533.194 13.9474L529.125 17.4882L533.586 21.2449C536.036 23.3176 538.046 25.1744 538.046 25.3903C538.046 25.6062 536.429 27.0743 534.419 28.6288L530.792 31.522H296.454H62.1166L58.5385 28.5425L55.0095 25.5198L59.0777 21.9358L63.0969 18.3518L59.1757 14.8974C57.0191 12.9974 55.2546 11.3566 55.2546 11.1838C55.2546 11.0111 56.872 9.49979 58.8326 7.81574L62.3616 4.74991H296.65H530.988L534.125 7.55665ZM552.701 7.51347L555.789 10.2339L552.652 12.652C550.937 14.0338 549.368 15.1133 549.172 15.1133C548.927 15.1133 547.457 13.9906 545.839 12.652L542.898 10.1907L545.986 7.47029C547.653 5.95897 549.172 4.74991 549.319 4.74991C549.466 4.74991 550.986 6.00215 552.701 7.51347ZM580.492 6.21805C583.629 7.47029 586.374 9.93159 587.894 12.8679C588.972 14.8542 589.119 15.6314 588.923 18.6973C588.678 24.1812 586.129 27.7221 580.591 30.3129C578.826 31.1333 577.699 31.3061 574.072 31.3061C570.15 31.3061 569.366 31.1765 567.161 30.097C565.739 29.4061 563.681 27.9811 562.504 26.9448L560.397 25.0448L564.759 21.1586L569.17 17.2723L565.249 13.7747L561.328 10.3202L563.288 8.8089C568.582 4.74991 574.611 3.84311 580.492 6.21805ZM48.8827 10.9247C48.8827 11.4429 44.3734 15.0701 43.7362 15.1133C43.4421 15.1133 42.0207 14.0338 40.5503 12.7383L37.9035 10.3634L40.5503 7.98846L43.197 5.61352L46.0399 8.07482C47.6083 9.45661 48.8827 10.7088 48.8827 10.9247ZM37.5604 20.3813L34.5215 23.3608L31.6296 20.8563L28.7868 18.395L31.8257 15.6746L34.8156 12.9974L37.7074 15.1996L40.5503 17.3587L37.5604 20.3813ZM543.781 15.6314L546.771 18.3518L543.977 20.5972L541.134 22.8426L538.046 20.0791L534.909 17.2723L537.311 15.1133C538.634 13.9474 539.958 12.9542 540.252 12.9542C540.546 12.9542 542.114 14.1633 543.781 15.6314ZM561.328 15.1133L563.73 17.2723L560.838 19.9063L557.897 22.4972L555.299 19.9927L552.701 17.4882L555.348 15.2428C556.868 13.9906 558.24 12.9542 558.485 12.9542C558.73 12.9542 560.004 13.9474 561.328 15.1133ZM54.7154 20.5541L51.9706 22.9722L49.1768 20.6836L46.383 18.4382L49.2258 15.8905L52.0686 13.3861L54.7644 15.761L57.4602 18.1359L54.7154 20.5541ZM46.0889 28.1539L43.001 30.8742L40.3052 28.4993C38.8347 27.2039 37.6094 25.9516 37.6094 25.7357C37.6094 25.4767 38.8838 24.1812 40.4032 22.7994L43.246 20.295L46.1869 22.8858L49.1278 25.4767L46.0889 28.1539ZM554.711 25.0017C554.711 25.1312 553.486 26.3403 552.015 27.6357L549.319 30.0106L546.771 27.7221L544.173 25.4767L547.114 22.8426L550.055 20.2518L552.407 22.454C553.682 23.6631 554.711 24.8289 554.711 25.0017Z" fill="black" fill-opacity="0.7"/>
</svg>
