<svg width="955" height="59" viewBox="0 0 955 59" fill="none" xmlns="http://www.w3.org/2000/svg">
<path d="M876.846 6.39759L869.742 12.8663L863.349 7.46386L856.956 2.13253H477.297H97.6378L90.6919 8.10361L83.667 14.0747L76.4054 7.60602L69.0648 1.06626L62.4345 7.03735L55.8043 13.0084L51.9367 9.95181C42.3071 2.34578 30.7042 0.355419 18.8645 4.33614C15.3916 5.54457 12.8658 7.10843 8.99815 10.5916C2.13114 16.847 0.0789312 21.2542 0 30.2819C0 36.253 0.157862 37.0349 2.99938 42.0819C6.39342 48.2663 10.7346 52.1759 17.6806 55.2325C21.6271 57.0096 22.969 57.2229 30.3885 57.2229C37.7291 57.2229 39.2288 57.0096 43.1753 55.3036C45.7011 54.2373 49.4898 51.8916 51.6999 50.0434L55.7254 46.6313L62.5924 52.8157L69.4594 59L76.6422 52.5313L83.9038 46.0627L90.613 51.8205L97.2432 57.5783H477.612H857.982L864.296 51.8916C867.769 48.7639 870.926 46.2048 871.4 46.2048C871.795 46.2048 874.952 48.6928 878.267 51.6783L884.424 57.2229L891.133 51.1807L897.842 45.2096L901.946 49.0482C904.551 51.394 908.103 53.6687 911.26 55.0193C915.917 57.0096 917.101 57.2229 924.284 57.2229C931.467 57.2229 932.651 57.0096 937.308 55.0193C949.858 49.6169 956.804 37.959 954.593 25.6614C953.015 16.4205 946.621 8.95663 936.676 4.76265C931.94 2.77229 930.598 2.48795 924.284 2.48795C917.969 2.48795 916.628 2.77229 911.892 4.76265C908.971 5.97108 905.025 8.31687 902.972 10.0229L899.342 13.0795L892.08 6.53976C888.055 2.91446 884.582 0 884.424 0C884.187 0 880.793 2.91446 876.846 6.39759ZM41.0442 10.3783C43.2543 11.3024 46.3326 13.2217 48.0691 14.6434L51.0685 17.2024L44.1225 23.5289L37.0976 29.8554L44.2015 36.3241L51.3053 42.7928L47.3587 45.9205C34.5718 56.1566 15.1548 52.6024 8.12991 38.741C5.91984 34.4048 5.76197 26.0169 7.73525 22.0361C13.6551 10.0229 28.4941 4.83374 41.0442 10.3783ZM859.955 12.4398L865.086 17.1313L858.455 22.9602L851.904 28.7892L859.087 34.9735C863.033 38.3855 866.269 41.4422 866.269 41.7976C866.269 42.153 863.665 44.5699 860.429 47.1289L854.588 51.8916H477.218H99.8479L94.0859 46.9867L88.4029 42.0108L94.9542 36.1108L101.427 30.2108L95.112 24.5241C91.6391 21.3964 88.7976 18.6952 88.7976 18.4108C88.7976 18.1265 91.4023 15.6386 94.5595 12.8663L100.243 7.81928H477.534H854.903L859.955 12.4398ZM889.87 12.3687L894.843 16.847L889.791 20.8277C887.028 23.1024 884.503 24.8795 884.187 24.8795C883.792 24.8795 881.424 23.0313 878.82 20.8277L874.084 16.7759L879.056 12.2976C881.74 9.80964 884.187 7.81928 884.424 7.81928C884.66 7.81928 887.107 9.88072 889.87 12.3687ZM934.624 10.2361C939.675 12.2976 944.096 16.3494 946.542 21.1831C948.279 24.453 948.516 25.7325 948.2 30.7795C947.805 39.8072 943.701 45.6361 934.782 49.9012C931.94 51.2518 930.125 51.5361 924.284 51.5361C917.969 51.5361 916.706 51.3229 913.155 49.5458C910.866 48.4084 907.55 46.0627 905.656 44.3566L902.262 41.2289L909.287 34.8313L916.391 28.4337L910.076 22.6759L903.762 16.9892L906.919 14.5012C915.444 7.81928 925.152 6.3265 934.624 10.2361ZM78.5365 17.9843C78.5365 18.8373 71.2748 24.8084 70.2487 24.8795C69.7751 24.8795 67.4861 23.1024 65.1182 20.9699L60.8559 17.0602L65.1182 13.1506L69.3805 9.24096L73.9585 13.2928C76.4843 15.5675 78.5365 17.6289 78.5365 17.9843ZM60.3034 33.5518L55.4097 38.4566L50.7527 34.3337L46.1747 30.2819L51.0685 25.8036L55.8833 21.3964L60.5402 25.0217L65.1182 28.5759L60.3034 33.5518ZM875.504 25.7325L880.319 30.2108L875.82 33.9072L871.242 37.6036L866.269 33.0542L861.218 28.4337L865.086 24.8795C867.217 22.9602 869.348 21.3253 869.821 21.3253C870.295 21.3253 872.821 23.3157 875.504 25.7325ZM903.762 24.8795L907.629 28.4337L902.972 32.7699L898.237 37.0349L894.053 32.912L889.87 28.7892L894.132 25.0928C896.579 23.0313 898.789 21.3253 899.184 21.3253C899.578 21.3253 901.631 22.9602 903.762 24.8795ZM87.9293 33.8361L83.5092 37.8169L79.0101 34.0494L74.511 30.353L79.089 26.159L83.667 22.0361L88.0082 25.9458L92.3495 29.8554L87.9293 33.8361ZM74.0374 46.347L69.0648 50.8253L64.7235 46.9157C62.3556 44.7831 60.3823 42.7217 60.3823 42.3663C60.3823 41.9398 62.4345 39.8072 64.8814 37.5325L69.4594 33.4096L74.1953 37.6747L78.9312 41.9398L74.0374 46.347ZM893.106 41.1578C893.106 41.3711 891.133 43.3614 888.765 45.494L884.424 49.4036L880.319 45.6361L876.136 41.9398L880.872 37.6036L885.608 33.3386L889.396 36.9639C891.448 38.9542 893.106 40.8735 893.106 41.1578Z" fill="black" fill-opacity="0.7"/>
</svg>
