<svg width="246" height="21" viewBox="0 0 246 21" fill="none" xmlns="http://www.w3.org/2000/svg">
<path d="M225.652 2.82528L223.824 4.96805L222.178 3.17848L220.533 1.41246H122.83H25.1266L23.3391 3.3904L21.5313 5.36834L19.6625 3.22557L17.7735 1.05926L16.0672 3.0372L14.361 5.01514L13.3656 4.00262C10.8875 1.4831 7.90157 0.823788 4.85469 2.14241C3.96094 2.54271 3.31094 3.06075 2.31563 4.21454C0.548438 6.28667 0.0203125 7.74658 0 10.737C0 12.715 0.040625 12.974 0.771876 14.6458C1.64531 16.6944 2.7625 17.9895 4.55 19.002C5.56563 19.5907 5.91094 19.6613 7.82032 19.6613C9.70938 19.6613 10.0953 19.5907 11.1109 19.0256C11.7609 18.6724 12.7359 17.8953 13.3047 17.2831L14.3406 16.1528L16.1078 18.2014L17.875 20.25L19.7235 18.1072L21.5922 15.9645L23.3188 17.8718L25.025 19.7791H122.911H220.797L222.422 17.8953C223.316 16.8592 224.128 16.0116 224.25 16.0116C224.352 16.0116 225.164 16.8357 226.017 17.8247L227.602 19.6613L229.328 17.6598L231.055 15.6819L232.111 16.9534C232.781 17.7305 233.696 18.484 234.508 18.9314C235.706 19.5907 236.011 19.6613 237.86 19.6613C239.708 19.6613 240.013 19.5907 241.211 18.9314C244.441 17.1418 246.228 13.2801 245.66 9.20649C245.253 6.14539 243.608 3.67296 241.049 2.2837C239.83 1.62438 239.485 1.5302 237.86 1.5302C236.235 1.5302 235.889 1.62438 234.671 2.2837C233.919 2.68399 232.903 3.46104 232.375 4.02617L231.441 5.03869L229.572 2.87237C228.536 1.67148 227.642 0.706053 227.602 0.706053C227.541 0.706053 226.667 1.67148 225.652 2.82528ZM10.5625 4.1439C11.1313 4.45001 11.9234 5.08578 12.3703 5.55672L13.1422 6.40441L11.3547 8.50008L9.54688 10.5958L11.375 12.7385L13.2031 14.8813L12.1875 15.9174C8.89688 19.3081 3.9 18.1308 2.09219 13.5391C1.52344 12.1028 1.48281 9.32423 1.99063 8.0056C3.51407 4.02617 7.33282 2.30724 10.5625 4.1439ZM221.305 4.82676L222.625 6.38086L220.919 8.31171L219.233 10.2426L221.081 12.2911C222.097 13.4214 222.93 14.4339 222.93 14.5516C222.93 14.6694 222.26 15.47 221.427 16.3177L219.924 17.8953H122.809H25.6953L24.2125 16.2706L22.75 14.6223L24.436 12.6679L26.1016 10.7135L24.4766 8.82974C23.5828 7.79368 22.8516 6.89889 22.8516 6.80471C22.8516 6.71052 23.5219 5.88638 24.3344 4.96805L25.7969 3.29622H122.891H220.005L221.305 4.82676ZM229.003 4.80322L230.283 6.28667L228.983 7.6053C228.272 8.3588 227.622 8.94748 227.541 8.94748C227.439 8.94748 226.83 8.33526 226.16 7.6053L224.941 6.26313L226.221 4.77967C226.911 3.95553 227.541 3.29622 227.602 3.29622C227.663 3.29622 228.292 3.97907 229.003 4.80322ZM240.521 4.09681C241.821 4.77967 242.958 6.12185 243.588 7.72304C244.035 8.80619 244.096 9.23004 244.014 10.9019C243.913 13.8923 242.856 15.8232 240.561 17.236C239.83 17.6834 239.363 17.7776 237.86 17.7776C236.235 17.7776 235.91 17.7069 234.996 17.1183C234.406 16.7415 233.553 15.9645 233.066 15.3993L232.192 14.3633L234 12.244L235.828 10.1248L234.203 8.21752L232.578 6.33377L233.391 5.50963C235.585 3.29622 238.083 2.80173 240.521 4.09681ZM20.211 6.66342C20.211 6.94599 18.3422 8.92393 18.0781 8.94748C17.9563 8.94748 17.3672 8.3588 16.7578 7.6524L15.661 6.35731L16.7578 5.06223L17.8547 3.76715L19.0328 5.10933C19.6828 5.86283 20.211 6.54569 20.211 6.66342ZM15.5188 11.8202L14.2594 13.4449L13.0609 12.0792L11.8828 10.737L13.1422 9.25359L14.3813 7.79368L15.5797 8.99457L16.7578 10.1719L15.5188 11.8202ZM225.306 9.23004L226.546 10.7135L225.388 11.9379L224.21 13.1624L222.93 11.6554L221.63 10.1248L222.625 8.94748C223.174 8.31171 223.722 7.77013 223.844 7.77013C223.966 7.77013 224.616 8.42944 225.306 9.23004ZM232.578 8.94748L233.574 10.1248L232.375 11.5612L231.156 12.974L230.08 11.6083L229.003 10.2426L230.1 9.01812C230.73 8.33526 231.299 7.77013 231.4 7.77013C231.502 7.77013 232.03 8.31171 232.578 8.94748ZM22.6281 11.9144L21.4906 13.233L20.3328 11.985L19.175 10.7606L20.3531 9.37132L21.5313 8.0056L22.6485 9.30068L23.7656 10.5958L22.6281 11.9144ZM19.0531 16.0586L17.7735 17.5421L16.6563 16.247C16.0469 15.5406 15.5391 14.8578 15.5391 14.74C15.5391 14.5987 16.0672 13.8923 16.6969 13.1388L17.875 11.7731L19.0938 13.1859L20.3125 14.5987L19.0531 16.0586ZM229.836 14.3397C229.836 14.4104 229.328 15.0697 228.719 15.7761L227.602 17.0712L226.546 15.8232L225.469 14.5987L226.688 13.1624L227.906 11.7496L228.881 12.9505C229.41 13.6098 229.836 14.2455 229.836 14.3397Z" fill="black" fill-opacity="0.7"/>
</svg>
