<svg width="30" height="26" viewBox="0 0 30 26" fill="none" xmlns="http://www.w3.org/2000/svg">
<path d="M15 22.183C14.451 22.183 13.899 21.898 13.332 21.328C13.107 21.103 13.107 20.74 13.332 20.515C13.557 20.29 13.92 20.29 14.145 20.515C14.496 20.866 14.775 21.037 15.003 21.037C15.228 21.037 15.51 20.866 15.861 20.515C16.0861 20.29 16.449 20.29 16.674 20.515C16.899 20.74 16.899 21.103 16.674 21.328C16.101 21.898 15.549 22.183 15 22.183ZM0.300049 13.387C0.300049 14.818 0.423049 16.117 0.666049 17.281C0.912049 18.445 1.25705 19.456 1.70105 20.311C2.14505 21.166 2.70605 21.916 3.38705 22.561C4.06505 23.206 4.80305 23.737 5.60105 24.154C6.39905 24.571 7.30805 24.91 8.33405 25.168C9.36005 25.426 10.404 25.606 11.466 25.708C12.528 25.81 13.695 25.864 14.973 25.864C16.248 25.864 17.421 25.813 18.486 25.708C19.5541 25.606 20.598 25.426 21.6241 25.168C22.65 24.91 23.5651 24.574 24.3661 24.154C25.167 23.737 25.9111 23.206 26.5951 22.561C27.2791 21.916 27.8431 21.166 28.2871 20.311C28.7311 19.456 29.0791 18.445 29.328 17.281C29.577 16.117 29.703 14.818 29.703 13.387C29.703 10.822 28.9081 8.61103 27.3151 6.75703C27.4081 6.50803 27.4861 6.22603 27.5521 5.90803C27.6181 5.59003 27.681 5.13703 27.744 4.55503C27.8041 3.97303 27.7831 3.30103 27.6751 2.53903C27.567 1.77703 27.366 0.997033 27.069 0.205033L26.838 0.160033C26.685 0.130033 26.436 0.139033 26.088 0.190033C25.74 0.241033 25.3351 0.334033 24.8701 0.469033C24.4051 0.604033 23.805 0.868033 23.07 1.26403C22.3351 1.66003 21.5581 2.16403 20.7421 2.77003C19.3531 2.34703 17.439 1.90603 15 1.90603C12.561 1.90603 10.641 2.34703 9.24305 2.77003C8.42705 2.16103 7.64705 1.66303 6.90905 1.27003C6.17105 0.877033 5.57705 0.610033 5.13305 0.466033C4.68905 0.322033 4.27805 0.229033 3.90005 0.187033C3.52205 0.145033 3.27905 0.133033 3.17405 0.148033C3.06605 0.163033 2.98805 0.181033 2.93705 0.202033C2.64005 0.997033 2.43605 1.77403 2.32505 2.53603C2.21405 3.29803 2.18705 3.96703 2.25005 4.54603C2.31005 5.12203 2.37905 5.57803 2.44805 5.90803C2.51705 6.23803 2.60105 6.52003 2.69405 6.75703C1.09805 8.60203 0.300049 10.81 0.300049 13.387ZM4.22105 16.657C4.22105 14.992 4.83305 13.48 6.05705 12.124C6.42605 11.71 6.85205 11.398 7.33505 11.185C7.82105 10.972 8.37005 10.852 8.98805 10.822C9.60605 10.792 10.194 10.798 10.758 10.84C11.319 10.879 12.012 10.936 12.84 11.002C13.668 11.071 14.382 11.104 14.985 11.104C15.588 11.104 16.302 11.068 17.13 11.002C17.958 10.933 18.6511 10.879 19.212 10.84C19.7731 10.801 20.364 10.795 20.982 10.822C21.6 10.852 22.1521 10.972 22.644 11.185C23.133 11.398 23.562 11.71 23.931 12.124C25.1551 13.48 25.7701 14.992 25.7701 16.657C25.7701 17.635 25.668 18.505 25.4641 19.267C25.26 20.032 25.0021 20.671 24.6901 21.19C24.378 21.706 23.9431 22.144 23.382 22.501C22.8211 22.858 22.278 23.134 21.753 23.329C21.228 23.524 20.5471 23.677 19.716 23.785C18.885 23.893 18.1381 23.959 17.4811 23.983C16.8211 24.007 15.993 24.019 14.994 24.019C13.992 24.019 13.167 24.007 12.513 23.983C11.859 23.959 11.118 23.893 10.284 23.785C9.45305 23.677 8.77205 23.524 8.24705 23.329C7.72205 23.134 7.17605 22.858 6.61805 22.501C6.05705 22.144 5.61905 21.709 5.31005 21.19C4.99805 20.674 4.74005 20.032 4.53605 19.267C4.32305 18.505 4.22105 17.635 4.22105 16.657ZM7.65005 15.757C7.65005 14.236 8.47205 13 9.48605 13C10.5 13 11.322 14.233 11.322 15.757C11.322 17.278 10.5 18.514 9.48605 18.514C8.47205 18.514 7.65005 17.278 7.65005 15.757ZM18.675 15.757C18.675 14.236 19.497 13 20.511 13C21.525 13 22.35 14.233 22.35 15.757C22.35 17.278 21.528 18.514 20.511 18.514C19.497 18.514 18.675 17.278 18.675 15.757Z" fill="#DE9797"/>
</svg>
